<svg xmlns="http://www.w3.org/2000/svg" xmlns:xlink="http://www.w3.org/1999/xlink" version="1.1" preserveAspectRatio="xMidYMid meet" viewBox="0 0 640 640" width="640" height="640"><defs><path d="M-79.4 -22.12L735.56 -22.12L735.56 648.78L-79.4 648.78L-79.4 -22.12Z" id="b29LO2BOk0"></path><path d="M1113.55 5.45C1106.89 41.19 877.68 2.95 871.26 58.15C864.85 113.35 1149.82 183.23 1093.22 224.93C1052.76 254.74 970.7 193.96 759.28 214.81C547.87 235.66 899.84 152.9 779.93 140.54C660.01 128.18 463.4 174.26 463.4 125.65C463.4 77.04 597.2 104.81 625.33 58.15C653.45 11.49 452.31 24.75 523.56 -23.92C594.81 -72.6 949.06 -91.49 762.95 -26.57C576.83 38.35 1120.21 -30.29 1113.55 5.45Z" id="aFEt7ihxM"></path><path d="M984.66 214.81L989.85 237.64L979.2 236.5L984.66 214.81Z" id="a7IxNXzp7"></path><path d="M997.03 214.81L1002.22 237.64L991.56 236.5L997.03 214.81Z" id="eNGBshzNI"></path><path d="M989.99 220.2L995.18 243.03L984.52 241.89L989.99 220.2Z" id="a201DztQlK"></path><path d="M1000.64 231.61L1005.83 254.45L995.18 253.31L1000.64 231.61Z" id="b7ubs1T3X"></path><path d="M1010.15 214.81L1015.34 237.64L1004.69 236.5L1010.15 214.81Z" id="e2f3Qsuvw5"></path><path d="M1006.19 235.99L1011.38 258.82L1000.73 257.68L1006.19 235.99Z" id="d2oJWFwwo"></path><path d="M1018.56 235.99L1023.75 258.82L1013.09 257.68L1018.56 235.99Z" id="c2ByYU6ZXB"></path><path d="M1011.52 241.38L1016.71 264.21L1006.05 263.07L1011.52 241.38Z" id="d2UbBXx9em"></path><path d="M1022.17 252.79L1027.36 275.63L1016.71 274.48L1022.17 252.79Z" id="b2Xa2Xo2tR"></path><path d="M1031.68 235.99L1036.87 258.82L1026.22 257.68L1031.68 235.99Z" id="b1SMfXBol"></path><path d="M996.66 239.67L989.48 261.27L1000.15 262.25L996.66 239.67Z" id="c9rwTN8SI"></path><path d="M984.4 237.22L977.23 258.83L987.89 259.8L984.4 237.22Z" id="c304kpywby"></path><path d="M990.9 243.96L983.73 265.56L994.39 266.54L990.9 243.96Z" id="k2aGzr7WK1"></path><path d="M979.33 253.17L972.15 274.77L982.81 275.75L979.33 253.17Z" id="a2VhBVpm2D"></path><path d="M971.39 234.63L964.22 256.23L974.88 257.21L971.39 234.63Z" id="b23VQII8CW"></path><path d="M526.53 1.32L531.72 24.15L521.07 23.01L526.53 1.32Z" id="c15Y9eKshh"></path><path d="M538.9 1.32L544.09 24.15L533.43 23.01L538.9 1.32Z" id="f5DHH9HWno"></path><path d="M531.86 6.71L537.05 29.54L526.39 28.4L531.86 6.71Z" id="i26IbVVyKE"></path><path d="M542.51 18.12L547.7 40.96L537.05 39.81L542.51 18.12Z" id="cSu0n0JnI"></path><path d="M552.02 1.32L557.21 24.15L546.56 23.01L552.02 1.32Z" id="bZ3773KUg"></path><path d="M548.06 22.5L553.25 45.33L542.6 44.19L548.06 22.5Z" id="bB38nXjPp"></path><path d="M560.43 22.5L565.62 45.33L554.96 44.19L560.43 22.5Z" id="d1Pxunf6fB"></path><path d="M553.39 27.89L558.58 50.72L547.92 49.58L553.39 27.89Z" id="a3AGCtbDGH"></path><path d="M564.04 39.3L569.23 62.14L558.58 60.99L564.04 39.3Z" id="g2zEIWZH5H"></path><path d="M573.55 22.5L578.75 45.33L568.09 44.19L573.55 22.5Z" id="c35K94nVEA"></path><path d="M538.53 26.18L531.36 47.78L542.02 48.76L538.53 26.18Z" id="a2kIo4ADhP"></path><path d="M526.27 23.73L519.1 45.34L529.76 46.31L526.27 23.73Z" id="b3ipb4Jifj"></path><path d="M532.77 30.47L525.6 52.07L536.26 53.05L532.77 30.47Z" id="aXIC5VEAI"></path><path d="M521.2 39.68L514.02 61.28L524.68 62.26L521.2 39.68Z" id="c3tbHEkUg0"></path><path d="M513.26 21.14L506.09 42.74L516.75 43.72L513.26 21.14Z" id="acYRPAtUJ"></path><path d="M921.65 17.58L926.84 40.41L916.19 39.27L921.65 17.58Z" id="a1GIK3JLHM"></path><path d="M934.02 17.58L939.21 40.41L928.55 39.27L934.02 17.58Z" id="g1ue8PD1Z1"></path><path d="M926.98 22.97L932.17 45.8L921.51 44.66L926.98 22.97Z" id="d1cswhhLNm"></path><path d="M937.63 34.39L942.82 57.22L932.17 56.08L937.63 34.39Z" id="b1mF9of1T"></path><path d="M947.14 17.58L952.34 40.41L941.68 39.27L947.14 17.58Z" id="a1hsGBFaJM"></path><path d="M943.18 38.76L948.37 61.59L937.72 60.45L943.18 38.76Z" id="d1ja2arUWG"></path><path d="M955.55 38.76L960.74 61.59L950.08 60.45L955.55 38.76Z" id="b1sfofgedX"></path><path d="M948.51 44.15L953.7 66.98L943.04 65.84L948.51 44.15Z" id="d2i82T2ror"></path><path d="M959.16 55.57L964.35 78.4L953.7 77.26L959.16 55.57Z" id="afZO1NgdH"></path><path d="M968.68 38.76L973.87 61.59L963.21 60.45L968.68 38.76Z" id="b2C8VAVeAr"></path><path d="M933.65 42.44L926.48 64.05L937.14 65.02L933.65 42.44Z" id="bhmQMLhPo"></path><path d="M921.39 40L914.22 61.6L924.88 62.58L921.39 40Z" id="d30vki0qR0"></path><path d="M927.89 46.73L920.72 68.34L931.38 69.31L927.89 46.73Z" id="aI7Busf1p"></path><path d="M916.32 55.94L909.14 77.54L919.8 78.52L916.32 55.94Z" id="a3kNHiEKx"></path><path d="M908.38 37.4L901.21 59.01L911.87 59.98L908.38 37.4Z" id="gdL7H2gYC"></path><path d="M807.32 -59.62L812.51 -36.79L801.86 -37.93L807.32 -59.62Z" id="a7AJMdQkF"></path><path d="M819.69 -59.62L824.88 -36.79L814.23 -37.93L819.69 -59.62Z" id="a3fNBLVjvB"></path><path d="M812.65 -54.23L817.84 -31.4L807.19 -32.54L812.65 -54.23Z" id="b8wuLdVLw"></path><path d="M823.3 -42.82L828.5 -19.98L817.84 -21.12L823.3 -42.82Z" id="fqVaMciEM"></path><path d="M832.82 -59.62L838.01 -36.79L827.35 -37.93L832.82 -59.62Z" id="h1xG7vU1RN"></path><path d="M828.85 -38.44L834.04 -15.61L823.39 -16.75L828.85 -38.44Z" id="b1uwXkXDOe"></path><path d="M841.22 -38.44L846.41 -15.61L835.76 -16.75L841.22 -38.44Z" id="j2PdHYMdHG"></path><path d="M834.18 -33.05L839.37 -10.22L828.72 -11.36L834.18 -33.05Z" id="c19ydo0DPw"></path><path d="M844.84 -21.64L850.03 1.2L839.37 0.06L844.84 -21.64Z" id="f1gtnyMRJ"></path><path d="M854.35 -38.44L859.54 -15.61L848.88 -16.75L854.35 -38.44Z" id="aU1q2tmUH"></path><path d="M819.32 -34.76L812.15 -13.16L822.81 -12.18L819.32 -34.76Z" id="d3Oyiskzb"></path><path d="M807.07 -37.21L799.89 -15.6L810.55 -14.63L807.07 -37.21Z" id="f2Cet0WtLS"></path><path d="M813.57 -30.47L806.39 -8.87L817.05 -7.89L813.57 -30.47Z" id="g20PHQtvR"></path><path d="M801.99 -21.26L794.81 0.34L805.48 1.32L801.99 -21.26Z" id="b1xSjSAf3"></path><path d="M794.06 -39.8L786.88 -18.2L797.54 -17.22L794.06 -39.8Z" id="abM06EZlo"></path><path d="M1041.48 1.32L1046.67 24.15L1036.02 23.01L1041.48 1.32Z" id="b2cEciH8D3"></path><path d="M1053.85 1.32L1059.04 24.15L1048.38 23.01L1053.85 1.32Z" id="b2oCPTsXwB"></path><path d="M1046.81 6.71L1052 29.54L1041.35 28.4L1046.81 6.71Z" id="a1gFW3dqyZ"></path><path d="M1057.46 18.12L1062.65 40.96L1052 39.81L1057.46 18.12Z" id="g8Uygv6IM"></path><path d="M1066.98 1.32L1072.17 24.15L1061.51 23.01L1066.98 1.32Z" id="b1jpPXEcBU"></path><path d="M1063.01 22.5L1068.2 45.33L1057.55 44.19L1063.01 22.5Z" id="csKRkU0yk"></path><path d="M1075.38 22.5L1080.57 45.33L1069.91 44.19L1075.38 22.5Z" id="eryb6R8h"></path><path d="M1068.34 27.89L1073.53 50.72L1062.88 49.58L1068.34 27.89Z" id="a159xpEego"></path><path d="M1078.99 39.3L1084.18 62.14L1073.53 60.99L1078.99 39.3Z" id="iiXlQFhv5"></path><path d="M1088.51 22.5L1093.7 45.33L1083.04 44.19L1088.51 22.5Z" id="c5nHmD76n"></path><path d="M1053.48 26.18L1046.31 47.78L1056.97 48.76L1053.48 26.18Z" id="a3PidyA7xK"></path><path d="M1041.23 23.73L1034.05 45.34L1044.71 46.31L1041.23 23.73Z" id="d8cqqbPXX0"></path><path d="M1047.72 30.47L1040.55 52.07L1051.21 53.05L1047.72 30.47Z" id="bV9THvAwd"></path><path d="M1036.15 39.68L1028.97 61.28L1039.63 62.26L1036.15 39.68Z" id="a3we66P41"></path><path d="M1028.21 21.14L1021.04 42.74L1031.7 43.72L1028.21 21.14Z" id="f2KQAsw6L"></path><path d="M447.51 -29.15L452.7 -6.32L442.05 -7.46L447.51 -29.15Z" id="g25ocDYT3i"></path><path d="M459.88 -29.15L465.07 -6.32L454.41 -7.46L459.88 -29.15Z" id="c71SxUBHp"></path><path d="M452.84 -23.76L458.03 -0.93L447.38 -2.07L452.84 -23.76Z" id="a4TPRBe2Kr"></path><path d="M463.49 -12.35L468.68 10.49L458.03 9.35L463.49 -12.35Z" id="beqq5t5Gm"></path><path d="M473.01 -29.15L478.2 -6.32L467.54 -7.46L473.01 -29.15Z" id="a8VN5ax2j"></path><path d="M469.04 -7.97L474.23 14.86L463.58 13.72L469.04 -7.97Z" id="a2anIiMuif"></path><path d="M481.41 -7.97L486.6 14.86L475.95 13.72L481.41 -7.97Z" id="a11rx6BJKd"></path><path d="M474.37 -2.58L479.56 20.25L468.91 19.11L474.37 -2.58Z" id="auJnFUVpH"></path><path d="M485.02 8.83L490.21 31.67L479.56 30.52L485.02 8.83Z" id="b5twfkXxX"></path><path d="M494.54 -7.97L499.73 14.86L489.07 13.72L494.54 -7.97Z" id="c123WiEeFq"></path><path d="M459.51 -4.29L452.34 17.31L463 18.29L459.51 -4.29Z" id="c8ebxR9lWi"></path><path d="M447.26 -6.74L440.08 14.87L450.74 15.84L447.26 -6.74Z" id="g20MVbbDMW"></path><path d="M453.75 0L446.58 21.6L457.24 22.58L453.75 0Z" id="d1vocqBvzs"></path><path d="M442.18 9.21L435 30.81L445.66 31.79L442.18 9.21Z" id="d6IuGGbhv"></path><path d="M434.24 -9.33L427.07 12.27L437.73 13.25L434.24 -9.33Z" id="c13zlNBxhq"></path><path d="M532.74 -109.03L537.93 -86.19L527.28 -87.34L532.74 -109.03Z" id="bmrhdeYQN"></path><path d="M545.11 -109.03L550.3 -86.19L539.65 -87.34L545.11 -109.03Z" id="c7ewFeIshi"></path><path d="M538.07 -103.64L543.26 -80.81L532.61 -81.95L538.07 -103.64Z" id="bdrUfC94X"></path><path d="M548.72 -92.22L553.91 -69.39L543.26 -70.53L548.72 -92.22Z" id="a5CQ0abJqT"></path><path d="M558.24 -109.03L563.43 -86.19L552.77 -87.34L558.24 -109.03Z" id="bcGRobYIG"></path><path d="M554.27 -87.85L559.46 -65.02L548.81 -66.16L554.27 -87.85Z" id="b13g1TU32I"></path><path d="M566.64 -87.85L571.83 -65.02L561.18 -66.16L566.64 -87.85Z" id="i68ObZoR0y"></path><path d="M559.6 -82.46L564.79 -59.63L554.14 -60.77L559.6 -82.46Z" id="j2FnivUCW6"></path><path d="M570.25 -71.04L575.44 -48.21L564.79 -49.35L570.25 -71.04Z" id="a8mHYxIRSH"></path><path d="M579.77 -87.85L584.96 -65.02L574.3 -66.16L579.77 -87.85Z" id="b1Q15FNpD"></path><path d="M544.74 -84.17L537.57 -62.56L548.23 -61.59L544.74 -84.17Z" id="cqHWR5LZx"></path><path d="M532.49 -86.61L525.31 -65.01L535.97 -64.03L532.49 -86.61Z" id="b1aPMEOWro"></path><path d="M538.98 -79.88L531.81 -58.27L542.47 -57.3L538.98 -79.88Z" id="gn2JmcS6k"></path><path d="M527.41 -70.67L520.23 -49.06L530.89 -48.09L527.41 -70.67Z" id="a5VLhmHhy8"></path><path d="M519.48 -89.21L512.3 -67.6L522.96 -66.63L519.48 -89.21Z" id="l2oye8cZGs"></path><path d="M701.66 125.46L706.85 148.29L696.19 147.15L701.66 125.46Z" id="h4rFLV9H6o"></path><path d="M714.02 125.46L719.22 148.29L708.56 147.15L714.02 125.46Z" id="a1iXqyAUJ0"></path><path d="M706.99 130.85L712.18 153.68L701.52 152.54L706.99 130.85Z" id="b60m6po6N"></path><path d="M717.64 142.27L722.83 165.1L712.18 163.96L717.64 142.27Z" id="jfnP0S7z"></path><path d="M727.15 125.46L732.34 148.29L721.69 147.15L727.15 125.46Z" id="b40e1k8On2"></path><path d="M723.19 146.64L728.38 169.47L717.72 168.33L723.19 146.64Z" id="b2SHuVhBL3"></path><path d="M735.55 146.64L740.75 169.47L730.09 168.33L735.55 146.64Z" id="bRhQHw38w"></path><path d="M728.52 152.03L733.71 174.86L723.05 173.72L728.52 152.03Z" id="c1UYLxEM9z"></path><path d="M739.17 163.44L744.36 186.28L733.71 185.14L739.17 163.44Z" id="f7Rb0i6On"></path><path d="M748.68 146.64L753.87 169.47L743.22 168.33L748.68 146.64Z" id="gZnqT5bx4"></path><path d="M713.66 150.32L706.48 171.93L717.14 172.9L713.66 150.32Z" id="b1ghfuzKBN"></path><path d="M701.4 147.88L694.23 169.48L704.89 170.46L701.4 147.88Z" id="bhAkPMYuk"></path><path d="M707.9 154.61L700.72 176.21L711.39 177.19L707.9 154.61Z" id="bcynNWJcP"></path><path d="M696.32 163.82L689.15 185.42L699.81 186.4L696.32 163.82Z" id="cEwOmydDn"></path><path d="M688.39 145.28L681.21 166.89L691.88 167.86L688.39 145.28Z" id="fXAYsPJEN"></path><path d="M-163.84 510C-130.49 532.46 -0.84 522.26 37.93 541.67C76.7 561.08 47.93 572.83 -8.77 587.65C-65.46 602.48 -158.43 589.65 -188.86 600.97C-219.29 612.28 -227.34 628.92 -130.49 632.92C-33.65 636.91 146.84 631.84 198.53 616.94C250.22 602.05 160.33 605.29 157.7 573.34C155.06 541.39 263.96 551.02 255.2 527.31C246.45 503.6 -178.64 524.95 41.26 478.48C261.16 432.02 -44.2 443.98 -95.48 451.86C-146.75 459.74 -197.2 487.55 -163.84 510Z" id="ac7ONWYWY"></path><path d="M-90.34 510L-85.31 533.73L-95.65 532.55L-90.34 510Z" id="a5GpL6TcD"></path><path d="M-78.34 510L-73.31 533.73L-83.65 532.55L-78.34 510Z" id="b7ZTZJvCm"></path><path d="M-85.17 515.6L-80.14 539.34L-90.48 538.15L-85.17 515.6Z" id="a1j5VC29sK"></path><path d="M-74.84 527.47L-69.8 551.2L-80.14 550.01L-74.84 527.47Z" id="a7GFuvtmkz"></path><path d="M-65.6 510L-60.57 533.73L-70.91 532.55L-65.6 510Z" id="d1Xn7nW6t0"></path><path d="M-69.45 532.01L-64.41 555.75L-74.75 554.56L-69.45 532.01Z" id="huQbPy6PB"></path><path d="M-57.45 532.01L-52.41 555.75L-62.75 554.56L-57.45 532.01Z" id="g1JQBJl359"></path><path d="M-64.28 537.62L-59.24 561.35L-69.58 560.16L-64.28 537.62Z" id="bjwtkQ84V"></path><path d="M-53.94 549.48L-48.91 573.21L-59.24 572.03L-53.94 549.48Z" id="eug63DNmk"></path><path d="M-44.71 532.01L-39.68 555.75L-50.01 554.56L-44.71 532.01Z" id="arMhICSCg"></path><path d="M-78.7 535.84L-85.66 558.3L-75.32 559.31L-78.7 535.84Z" id="aRMDbmI3e"></path><path d="M-90.59 533.3L-97.56 555.75L-87.21 556.77L-90.59 533.3Z" id="b1TpRHcCzL"></path><path d="M-84.29 540.3L-91.25 562.75L-80.9 563.77L-84.29 540.3Z" id="a1zokxO1tA"></path><path d="M-95.52 549.87L-102.48 572.32L-92.14 573.34L-95.52 549.87Z" id="g1pEvhUPbI"></path><path d="M-103.22 530.6L-110.18 553.06L-99.84 554.07L-103.22 530.6Z" id="b4j1T3lnrJ"></path><path d="M107.43 446.67L112.46 470.4L102.12 469.21L107.43 446.67Z" id="i20OnOikCV"></path><path d="M119.43 446.67L124.46 470.4L114.13 469.21L119.43 446.67Z" id="b6n8w3IX"></path><path d="M112.6 452.27L117.63 476L107.29 474.81L112.6 452.27Z" id="a1X3u92QXD"></path><path d="M122.93 464.14L127.97 487.87L117.63 486.68L122.93 464.14Z" id="f2G33Mo220"></path><path d="M132.17 446.67L137.2 470.4L126.86 469.21L132.17 446.67Z" id="aUkRW55gV"></path><path d="M128.32 468.68L133.36 492.41L123.02 491.22L128.32 468.68Z" id="a1EvY4l3Z4"></path><path d="M140.32 468.68L145.36 492.41L135.02 491.22L140.32 468.68Z" id="bRTVFmB3e"></path><path d="M133.49 474.28L138.53 498.01L128.19 496.83L133.49 474.28Z" id="a2UIdtVrqW"></path><path d="M143.83 486.15L148.86 509.88L138.53 508.69L143.83 486.15Z" id="aQPAZDyR7"></path><path d="M153.06 468.68L158.1 492.41L147.76 491.22L153.06 468.68Z" id="c2IERFWO7g"></path><path d="M119.07 472.51L112.11 494.96L122.45 495.98L119.07 472.51Z" id="acpXJAy86v"></path><path d="M107.18 469.97L100.21 492.42L110.56 493.43L107.18 469.97Z" id="hSwQe5Xwc"></path><path d="M113.48 476.96L106.52 499.42L116.87 500.43L113.48 476.96Z" id="aIjT0Dqmq"></path><path d="M102.25 486.53L95.29 508.99L105.63 510L102.25 486.53Z" id="d1enuXEMsi"></path><path d="M94.55 467.27L87.59 489.72L97.93 490.74L94.55 467.27Z" id="h5FphL4aSM"></path><path d="M-218.71 433.65L-213.68 457.38L-224.02 456.2L-218.71 433.65Z" id="bYPTFYxgq"></path><path d="M-206.71 433.65L-201.68 457.38L-212.02 456.2L-206.71 433.65Z" id="b22GvNQ5Cw"></path><path d="M-213.55 439.25L-208.51 462.98L-218.85 461.8L-213.55 439.25Z" id="f2P9phSH4m"></path><path d="M-203.21 451.12L-198.17 474.85L-208.51 473.66L-203.21 451.12Z" id="bd0288mBW"></path><path d="M-193.98 433.65L-188.94 457.38L-199.28 456.2L-193.98 433.65Z" id="a1iwa1e6b4"></path><path d="M-197.82 455.66L-192.79 479.39L-203.12 478.21L-197.82 455.66Z" id="b1kEOHcP4k"></path><path d="M-185.82 455.66L-180.79 479.39L-191.12 478.21L-185.82 455.66Z" id="e1GmjheDxf"></path><path d="M-192.65 461.26L-187.62 484.99L-197.95 483.81L-192.65 461.26Z" id="a1rBeJKffX"></path><path d="M-182.31 473.13L-177.28 496.86L-187.62 495.67L-182.31 473.13Z" id="daz0WbK3u"></path><path d="M-173.08 455.66L-168.05 479.39L-178.39 478.21L-173.08 455.66Z" id="c3OJEbMgQ"></path><path d="M-207.07 459.49L-214.03 481.94L-203.69 482.96L-207.07 459.49Z" id="d1fikw2e1T"></path><path d="M-218.96 456.95L-225.93 479.4L-215.58 480.42L-218.96 456.95Z" id="g1zIND7ZwK"></path><path d="M-212.66 463.95L-219.62 486.4L-209.28 487.41L-212.66 463.95Z" id="bMb0iFnak"></path><path d="M-223.89 473.52L-230.85 495.97L-220.51 496.99L-223.89 473.52Z" id="bSLdnaG27"></path><path d="M-231.59 454.25L-238.55 476.7L-228.21 477.72L-231.59 454.25Z" id="d1EUX2Uo3"></path><path d="M205.04 536.83L210.07 560.56L199.73 559.37L205.04 536.83Z" id="bWpsyhiLS"></path><path d="M217.04 536.83L222.07 560.56L211.73 559.37L217.04 536.83Z" id="b39gUz2w7K"></path><path d="M210.21 542.43L215.24 566.16L204.9 564.97L210.21 542.43Z" id="a18tlfDEt"></path><path d="M220.54 554.3L225.58 578.03L215.24 576.84L220.54 554.3Z" id="j13FDstSXq"></path><path d="M229.78 536.83L234.81 560.56L224.47 559.37L229.78 536.83Z" id="b45fdLk52u"></path><path d="M225.93 558.84L230.97 582.57L220.63 581.39L225.93 558.84Z" id="b2f5R6e9kP"></path><path d="M237.93 558.84L242.97 582.57L232.63 581.39L237.93 558.84Z" id="b2sBT4duFe"></path><path d="M231.1 564.44L236.13 588.17L225.8 586.99L231.1 564.44Z" id="mTu3KMv"></path><path d="M241.44 576.31L246.47 600.04L236.13 598.85L241.44 576.31Z" id="cJ7iisiWm"></path><path d="M250.67 558.84L255.7 582.57L245.37 581.39L250.67 558.84Z" id="e6o2r5UCh"></path><path d="M216.68 562.67L209.72 585.12L220.06 586.14L216.68 562.67Z" id="b180vkmbtY"></path><path d="M204.79 560.13L197.82 582.58L208.17 583.59L204.79 560.13Z" id="f1PGhYIsmu"></path><path d="M211.09 567.12L204.13 589.58L214.48 590.59L211.09 567.12Z" id="bRBw6UaAi"></path><path d="M199.86 576.7L192.9 599.15L203.24 600.16L199.86 576.7Z" id="a2j2272GKE"></path><path d="M192.16 557.43L185.2 579.88L195.54 580.9L192.16 557.43Z" id="a6uiPfhp83"></path><path d="M-4.32 616.28L0.72 640.01L-9.62 638.82L-4.32 616.28Z" id="jaNvhYPN8"></path><path d="M7.68 616.28L12.72 640.01L2.38 638.82L7.68 616.28Z" id="a2mxuGoA6"></path><path d="M0.85 621.88L5.88 645.61L-4.45 644.42L0.85 621.88Z" id="bFvBOpUKB"></path><path d="M11.19 633.74L16.22 657.47L5.88 656.29L11.19 633.74Z" id="a4q2nDh5AM"></path><path d="M20.42 616.28L25.45 640.01L15.12 638.82L20.42 616.28Z" id="b1v4kG0wcR"></path><path d="M16.57 638.29L21.61 662.02L11.27 660.83L16.57 638.29Z" id="a6U1O7P5X"></path><path d="M28.57 638.29L33.61 662.02L23.27 660.83L28.57 638.29Z" id="b13TvNzetm"></path><path d="M21.74 643.89L26.78 667.62L16.44 666.43L21.74 643.89Z" id="aOoAKuGDj"></path><path d="M32.08 655.75L37.12 679.49L26.78 678.3L32.08 655.75Z" id="g3habNzjx1"></path><path d="M41.31 638.29L46.35 662.02L36.01 660.83L41.31 638.29Z" id="bdkecUi7k"></path><path d="M7.32 642.11L0.36 664.57L10.71 665.58L7.32 642.11Z" id="cjBz2qnWb"></path><path d="M-4.57 639.57L-11.53 662.03L-1.19 663.04L-4.57 639.57Z" id="d1gE2Dph0q"></path><path d="M1.74 646.57L-5.23 669.03L5.12 670.04L1.74 646.57Z" id="bKUGFB0y"></path><path d="M-9.5 656.14L-16.46 678.6L-6.11 679.61L-9.5 656.14Z" id="bBcC7kOWg"></path><path d="M-17.2 636.88L-24.16 659.33L-13.81 660.34L-17.2 636.88Z" id="c30uoEQEt"></path><path d="M239.97 502.52C226.86 517.91 220.31 532.13 220.31 545.19C220.31 558.24 226.86 570.13 239.97 580.85C247.34 586.34 255.47 589.45 264.36 590.17C273.25 590.89 282.9 589.23 293.31 585.19C313.86 583.46 331.31 579.35 345.64 572.85C359.97 566.35 371.19 557.46 379.31 546.19C392.03 542.8 403.36 537.69 413.31 530.85C423.25 524.02 431.81 515.46 438.97 505.19C460.14 503.13 477.92 498.8 492.31 492.19C506.69 485.58 517.69 476.69 525.31 465.52C548.86 452.63 565.08 439.08 573.97 424.85C582.86 410.63 584.42 395.74 578.64 380.19L239.97 502.52Z" id="aq8pONBCN"></path><path d="M241.86 469.72C237.75 477.44 236.75 486.22 238.86 496.06C225.75 511.44 219.19 525.67 219.19 538.72C219.19 551.78 225.75 563.67 238.86 574.39C246.23 579.88 254.36 582.98 263.25 583.7C272.14 584.43 281.78 582.77 292.19 578.72C312.75 577 330.19 572.89 344.52 566.39C358.86 559.89 370.08 551 378.19 539.72C390.91 536.33 402.25 531.22 412.19 524.39C422.14 517.56 430.69 509 437.86 498.72C459.02 496.67 476.8 492.33 491.19 485.72C505.58 479.11 516.58 470.22 524.19 459.06C547.75 446.17 563.97 432.61 572.86 418.39C581.75 404.17 582.64 389.83 575.52 375.39C566.8 363.82 555.69 357.12 542.19 355.29C528.69 353.45 513.47 355.93 496.52 362.72C491.41 358.44 485.08 356.78 477.52 357.72C469.97 358.67 461.19 362.22 451.19 368.39C436.3 367.28 423.3 369.83 412.19 376.06C401.08 382.28 391.86 392.17 384.52 405.72C380.14 403.72 375.36 403.17 370.19 404.06C365.02 404.94 359.47 407.28 353.52 411.06C331.19 404.61 312.52 404.61 297.52 411.06C282.52 417.5 271.19 430.39 263.52 449.72C253.19 455.33 245.97 462 241.86 469.72Z" id="bpcbLynrT"></path><path d="M63.56 204.29C54.48 215.08 49.94 225.04 49.94 234.19C49.94 243.34 54.48 251.68 63.56 259.19C68.67 263.04 74.3 265.21 80.46 265.72C86.62 266.22 93.3 265.06 100.51 262.23C114.75 261.02 126.83 258.14 136.76 253.58C146.69 249.03 154.46 242.8 160.08 234.9C168.9 232.52 176.75 228.94 183.63 224.15C190.52 219.36 196.45 213.36 201.41 206.16C216.08 204.72 228.39 201.68 238.36 197.05C248.33 192.42 255.95 186.19 261.22 178.36C277.54 169.33 288.77 159.83 294.93 149.86C301.09 139.9 302.17 129.46 298.16 118.56L63.56 204.29Z" id="d4GBUmNZt9"></path><path d="M64.87 181.31C62.02 186.72 61.33 192.87 62.79 199.76C53.71 210.55 49.17 220.51 49.17 229.66C49.17 238.81 53.71 247.14 62.79 254.66C67.9 258.5 73.53 260.68 79.69 261.19C85.84 261.69 92.53 260.53 99.74 257.7C113.98 256.49 126.06 253.61 135.99 249.05C145.92 244.5 153.69 238.27 159.31 230.36C168.12 227.99 175.97 224.41 182.86 219.62C189.75 214.83 195.68 208.83 200.64 201.63C215.31 200.19 227.62 197.15 237.59 192.52C247.56 187.89 255.18 181.66 260.45 173.83C276.77 164.8 288 155.3 294.16 145.33C300.32 135.37 300.93 125.32 296.01 115.2C289.97 107.09 282.27 102.4 272.92 101.11C263.57 99.83 253.02 101.56 241.28 106.32C237.74 103.32 233.35 102.16 228.12 102.82C222.89 103.48 216.81 105.97 209.88 110.29C199.57 109.51 190.56 111.31 182.86 115.67C175.17 120.03 168.78 126.96 163.7 136.46C160.66 135.06 157.35 134.67 153.77 135.29C150.19 135.91 146.34 137.55 142.22 140.19C126.75 135.68 113.82 135.68 103.43 140.19C93.04 144.71 85.19 153.74 79.88 167.29C72.72 171.22 67.72 175.9 64.87 181.31Z" id="a43UiuDUR"></path><path d="M495.58 197.24C490.17 204.33 487.46 210.89 487.46 216.91C487.46 222.93 490.17 228.41 495.58 233.35C498.63 235.88 501.98 237.31 505.66 237.64C509.33 237.98 513.31 237.21 517.61 235.35C526.1 234.55 533.3 232.66 539.22 229.66C545.14 226.67 549.78 222.57 553.13 217.37C558.38 215.81 563.06 213.45 567.17 210.3C571.28 207.15 574.81 203.2 577.77 198.47C586.51 197.52 593.85 195.52 599.8 192.47C605.74 189.42 610.28 185.33 613.42 180.18C623.15 174.24 629.85 167.99 633.52 161.43C637.2 154.87 637.84 148.01 635.45 140.84L495.58 197.24Z" id="j2Z4bHJbfk"></path><path d="M496.36 182.12C494.66 185.68 494.25 189.72 495.12 194.26C489.71 201.35 487 207.91 487 213.93C487 219.95 489.71 225.43 495.12 230.37C498.17 232.9 501.52 234.33 505.19 234.66C508.87 235 512.85 234.23 517.15 232.37C525.64 231.57 532.84 229.68 538.76 226.68C544.68 223.68 549.32 219.59 552.67 214.39C557.92 212.83 562.6 210.47 566.71 207.32C570.82 204.17 574.35 200.22 577.31 195.49C586.05 194.54 593.39 192.54 599.34 189.49C605.28 186.44 609.82 182.35 612.96 177.2C622.69 171.26 629.39 165.01 633.06 158.45C636.74 151.89 637.1 145.29 634.17 138.63C630.56 133.29 625.97 130.2 620.4 129.36C614.82 128.51 608.54 129.66 601.54 132.79C599.43 130.81 596.81 130.05 593.69 130.48C590.57 130.92 586.95 132.56 582.82 135.4C576.67 134.89 571.3 136.06 566.71 138.93C562.12 141.8 558.31 146.36 555.28 152.61C553.47 151.69 551.5 151.43 549.36 151.84C547.23 152.25 544.93 153.33 542.48 155.07C533.26 152.1 525.55 152.1 519.35 155.07C513.16 158.04 508.48 163.98 505.31 172.9C501.04 175.48 498.06 178.56 496.36 182.12Z" id="hPeLXXiEM"></path><path d="M271.87 370.87L278.19 371.03L277.32 385.97L271 385.81L271.87 370.87Z" id="huxZD9odK"></path><path d="M333.29 344.08L351.5 371.67L344.95 376.75L325.47 349.63L333.29 344.08Z" id="a3UhN29v9d"></path><path d="M280.12 337.76L251.52 367.82L253.23 372.95L255.42 377.47L303.76 369.88L316.29 364.31L373.76 319.91L321.31 322L299.65 313.31L280.12 337.76Z" id="b14Q0hJ60R"></path><path d="M293.68 344.34L311.96 339.26L313.37 315.04L279.67 297.92L263.02 329.57L293.68 344.34Z" id="a4lYiVVNxf"></path><path d="M343.44 328.12L324.72 337.15L326.24 310.95L343.44 328.12Z" id="b5e2QiJpH"></path><path d="M452.59 385.92L483.88 371.41L456.02 395.87L449.02 395.7L452.59 385.92Z" id="b3e2zpcLW"></path><path d="M266.02 331.64L230.47 270.7L222.86 272.82L259.37 335.51L266.02 331.64Z" id="b4bowjRp7K"></path><path d="M313.98 365.41L364.22 346.11L361.83 341.33L312.78 360.28L313.98 365.41Z" id="dyvAgWZsg"></path><path d="M355.75 375.3C355.48 380.1 351.62 383.91 347.14 383.8C342.66 383.68 339.26 379.7 339.53 374.9C339.81 370.1 343.67 366.29 348.15 366.4C352.62 366.52 356.03 370.5 355.75 375.3Z" id="aEN9gXkBP"></path><path d="M361.51 366.29C363.12 370.15 358.76 376.21 351.79 379.8C344.81 383.4 337.84 383.19 336.23 379.32C334.63 375.46 338.98 369.41 345.96 365.81C352.94 362.21 359.91 362.43 361.51 366.29Z" id="c5mKUZlX0F"></path><path d="M278.85 390.4C278.58 395.2 274.72 399.01 270.24 398.89C265.76 398.78 262.36 394.79 262.64 389.99C262.91 385.19 266.77 381.39 271.25 381.5C275.73 381.61 279.13 385.6 278.85 390.4Z" id="a62yX9HEAS"></path><path d="M285 381.02C286.61 384.88 282.25 390.94 275.28 394.54C268.3 398.13 261.33 397.92 259.72 394.06C258.12 390.19 262.47 384.14 269.45 380.54C276.43 376.95 283.4 377.16 285 381.02Z" id="eHL7ttIsc"></path><path d="M278.02 373.93C287.01 372.72 292.63 371.96 294.88 371.66C295.48 371.58 296 371.21 296.29 370.68C296.68 369.93 297.66 368.07 299.22 365.1L345.35 335.16L341.8 331.61L293.4 360.2L278.02 373.93Z" id="g13O2Luo0u"></path><path d="M450.25 395.73L454.16 386.1L158.82 233.05L156.12 240.51L450.25 395.73Z" id="eCaZQ4Wqk"></path><path d="M351.32 281.01L445.04 249.07L380.77 310.5L358.07 329.37L310.54 286.22L351.32 281.01Z" id="a5SyNE9oj"></path><path d="M263.92 328.42L293.96 344.46L258.94 368.12L227.15 352.15L263.92 328.42Z" id="g3Eu0H6fGh"></path><path d="M425.63 256.48L421.68 265.82L385.45 284.73L363.47 285.23L425.63 256.48Z" id="a1lmbDEO53"></path><path d="M363.88 326.28L443.89 250.49L420.42 262.47L342.64 307.13L363.88 326.28Z" id="htg0RQktp"></path><path d="M363.2 319.86L374.68 304.06L383.58 287.87L369.07 306.22L357.72 317.42L363.2 319.86Z" id="c3dIwE1s"></path><path d="M460.86 282.72L475.66 276.86L482.17 269.75L403.71 226.9L391.54 231.79L381.38 240.89L460.86 282.72Z" id="oNWJn8T27"></path><path d="M453.09 387.14L483.88 371.29L190.19 216.86L158.17 232.86L453.09 387.14Z" id="agWMti2qo"></path><path d="M444.08 249.05L454 194.22L433.15 204.78L412.8 251.03L362.58 286.14L444.08 249.05Z" id="c3rNPtKju3"></path><path d="M446.62 238.37L451.27 213.64L413.85 249.64L365.26 284.22L446.62 238.37Z" id="b7JgNZhCmQ"></path><path d="M255.34 363.94L293.97 344.35L260.55 373.7L255.34 363.94Z" id="d1FynI3h6Q"></path><path d="M443.99 248.76L442.57 273.22L418.59 260.82L443.99 248.76Z" id="aajfSe7vg"></path><path d="M260.58 374.64C258.46 379.01 248.47 378.16 238.29 372.75C228.1 367.34 221.56 359.4 223.68 355.03C225.8 350.66 235.79 351.51 245.98 356.92C256.16 362.33 262.7 370.27 260.58 374.64Z" id="b4fhDbABwm"></path><path d="M246.38 361.8C247.8 365.22 246.96 369.03 244.5 370.31C242.03 371.58 238.87 369.85 237.44 366.43C236.01 363.01 236.85 359.2 239.32 357.92C241.78 356.64 244.95 358.38 246.38 361.8Z" id="b1xq7yakg"></path><path d="M243.39 370.71L232.56 370.7L237.37 360.03L243.39 370.71Z" id="bH3s3NTef"></path><path d="M247.45 390.43C252.96 376.21 251.79 370.47 243.93 373.21C253.69 364.61 256.86 366.58 253.42 379.11C249.99 391.64 254.56 393.32 267.14 384.14C248.51 402.56 241.94 404.66 247.45 390.43Z" id="f1LtIfbLfz"></path><path d="M236.49 336.1C230.85 350.13 231.94 355.75 239.78 352.96C229.98 361.52 226.87 359.63 230.43 347.29C233.98 334.95 229.47 333.36 216.88 342.52C235.59 324.21 242.13 322.07 236.49 336.1Z" id="f58SyKrTl"></path><path d="M276 175.22L376 175.22L376 262.22L276 262.22L276 175.22Z" id="g2Mgah6fIJ"></path></defs><g><g><use xlink:href="#b29LO2BOk0" opacity="1" fill="#bdcd87" fill-opacity="1"></use></g><g></g><g class="ground"><g><g><use xlink:href="#aFEt7ihxM" opacity="1" fill="#869ac6" fill-opacity="1"></use></g><g><g><g><use xlink:href="#a7IxNXzp7" opacity="1" fill="#206314" fill-opacity="1"></use></g><g><use xlink:href="#eNGBshzNI" opacity="1" fill="#206314" fill-opacity="1"></use></g><g><use xlink:href="#a201DztQlK" opacity="1" fill="#206314" fill-opacity="1"></use></g><g><use xlink:href="#b7ubs1T3X" opacity="1" fill="#298418" fill-opacity="1"></use></g><g><use xlink:href="#e2f3Qsuvw5" opacity="1" fill="#206314" fill-opacity="1"></use></g></g><g><g><use xlink:href="#d2oJWFwwo" opacity="1" fill="#206314" fill-opacity="1"></use></g><g><use xlink:href="#c2ByYU6ZXB" opacity="1" fill="#206314" fill-opacity="1"></use></g><g><use xlink:href="#d2UbBXx9em" opacity="1" fill="#298418" fill-opacity="1"></use></g><g><use xlink:href="#b2Xa2Xo2tR" opacity="1" fill="#298418" fill-opacity="1"></use></g><g><use xlink:href="#b1SMfXBol" opacity="1" fill="#206314" fill-opacity="1"></use></g></g><g><g><use xlink:href="#c9rwTN8SI" opacity="1" fill="#206314" fill-opacity="1"></use></g><g><use xlink:href="#c304kpywby" opacity="1" fill="#206314" fill-opacity="1"></use></g><g><use xlink:href="#k2aGzr7WK1" opacity="1" fill="#298418" fill-opacity="1"></use></g><g><use xlink:href="#a2VhBVpm2D" opacity="1" fill="#298418" fill-opacity="1"></use></g><g><use xlink:href="#b23VQII8CW" opacity="1" fill="#206314" fill-opacity="1"></use></g></g></g><g><g><g><use xlink:href="#c15Y9eKshh" opacity="1" fill="#206314" fill-opacity="1"></use></g><g><use xlink:href="#f5DHH9HWno" opacity="1" fill="#206314" fill-opacity="1"></use></g><g><use xlink:href="#i26IbVVyKE" opacity="1" fill="#298418" fill-opacity="1"></use></g><g><use xlink:href="#cSu0n0JnI" opacity="1" fill="#298418" fill-opacity="1"></use></g><g><use xlink:href="#bZ3773KUg" opacity="1" fill="#206314" fill-opacity="1"></use></g></g><g><g><use xlink:href="#bB38nXjPp" opacity="1" fill="#206314" fill-opacity="1"></use></g><g><use xlink:href="#d1Pxunf6fB" opacity="1" fill="#206314" fill-opacity="1"></use></g><g><use xlink:href="#a3AGCtbDGH" opacity="1" fill="#298418" fill-opacity="1"></use></g><g><use xlink:href="#g2zEIWZH5H" opacity="1" fill="#298418" fill-opacity="1"></use></g><g><use xlink:href="#c35K94nVEA" opacity="1" fill="#206314" fill-opacity="1"></use></g></g><g><g><use xlink:href="#a2kIo4ADhP" opacity="1" fill="#206314" fill-opacity="1"></use></g><g><use xlink:href="#b3ipb4Jifj" opacity="1" fill="#206314" fill-opacity="1"></use></g><g><use xlink:href="#aXIC5VEAI" opacity="1" fill="#298418" fill-opacity="1"></use></g><g><use xlink:href="#c3tbHEkUg0" opacity="1" fill="#298418" fill-opacity="1"></use></g><g><use xlink:href="#acYRPAtUJ" opacity="1" fill="#206314" fill-opacity="1"></use></g></g></g><g><g><g><use xlink:href="#a1GIK3JLHM" opacity="1" fill="#206314" fill-opacity="1"></use></g><g><use xlink:href="#g1ue8PD1Z1" opacity="1" fill="#206314" fill-opacity="1"></use></g><g><use xlink:href="#d1cswhhLNm" opacity="1" fill="#298418" fill-opacity="1"></use></g><g><use xlink:href="#b1mF9of1T" opacity="1" fill="#298418" fill-opacity="1"></use></g><g><use xlink:href="#a1hsGBFaJM" opacity="1" fill="#206314" fill-opacity="1"></use></g></g><g><g><use xlink:href="#d1ja2arUWG" opacity="1" fill="#206314" fill-opacity="1"></use></g><g><use xlink:href="#b1sfofgedX" opacity="1" fill="#206314" fill-opacity="1"></use></g><g><use xlink:href="#d2i82T2ror" opacity="1" fill="#298418" fill-opacity="1"></use></g><g><use xlink:href="#afZO1NgdH" opacity="1" fill="#298418" fill-opacity="1"></use></g><g><use xlink:href="#b2C8VAVeAr" opacity="1" fill="#206314" fill-opacity="1"></use></g></g><g><g><use xlink:href="#bhmQMLhPo" opacity="1" fill="#206314" fill-opacity="1"></use></g><g><use xlink:href="#d30vki0qR0" opacity="1" fill="#206314" fill-opacity="1"></use></g><g><use xlink:href="#aI7Busf1p" opacity="1" fill="#298418" fill-opacity="1"></use></g><g><use xlink:href="#a3kNHiEKx" opacity="1" fill="#298418" fill-opacity="1"></use></g><g><use xlink:href="#gdL7H2gYC" opacity="1" fill="#206314" fill-opacity="1"></use></g></g></g><g><g><g><use xlink:href="#a7AJMdQkF" opacity="1" fill="#206314" fill-opacity="1"></use></g><g><use xlink:href="#a3fNBLVjvB" opacity="1" fill="#206314" fill-opacity="1"></use></g><g><use xlink:href="#b8wuLdVLw" opacity="1" fill="#298418" fill-opacity="1"></use></g><g><use xlink:href="#fqVaMciEM" opacity="1" fill="#298418" fill-opacity="1"></use></g><g><use xlink:href="#h1xG7vU1RN" opacity="1" fill="#206314" fill-opacity="1"></use></g></g><g><g><use xlink:href="#b1uwXkXDOe" opacity="1" fill="#206314" fill-opacity="1"></use></g><g><use xlink:href="#j2PdHYMdHG" opacity="1" fill="#206314" fill-opacity="1"></use></g><g><use xlink:href="#c19ydo0DPw" opacity="1" fill="#298418" fill-opacity="1"></use></g><g><use xlink:href="#f1gtnyMRJ" opacity="1" fill="#298418" fill-opacity="1"></use></g><g><use xlink:href="#aU1q2tmUH" opacity="1" fill="#206314" fill-opacity="1"></use></g></g><g><g><use xlink:href="#d3Oyiskzb" opacity="1" fill="#206314" fill-opacity="1"></use></g><g><use xlink:href="#f2Cet0WtLS" opacity="1" fill="#206314" fill-opacity="1"></use></g><g><use xlink:href="#g20PHQtvR" opacity="1" fill="#298418" fill-opacity="1"></use></g><g><use xlink:href="#b1xSjSAf3" opacity="1" fill="#298418" fill-opacity="1"></use></g><g><use xlink:href="#abM06EZlo" opacity="1" fill="#206314" fill-opacity="1"></use></g></g></g><g><g><g><use xlink:href="#b2cEciH8D3" opacity="1" fill="#206314" fill-opacity="1"></use></g><g><use xlink:href="#b2oCPTsXwB" opacity="1" fill="#206314" fill-opacity="1"></use></g><g><use xlink:href="#a1gFW3dqyZ" opacity="1" fill="#298418" fill-opacity="1"></use></g><g><use xlink:href="#g8Uygv6IM" opacity="1" fill="#298418" fill-opacity="1"></use></g><g><use xlink:href="#b1jpPXEcBU" opacity="1" fill="#206314" fill-opacity="1"></use></g></g><g><g><use xlink:href="#csKRkU0yk" opacity="1" fill="#206314" fill-opacity="1"></use></g><g><use xlink:href="#eryb6R8h" opacity="1" fill="#206314" fill-opacity="1"></use></g><g><use xlink:href="#a159xpEego" opacity="1" fill="#298418" fill-opacity="1"></use></g><g><use xlink:href="#iiXlQFhv5" opacity="1" fill="#298418" fill-opacity="1"></use></g><g><use xlink:href="#c5nHmD76n" opacity="1" fill="#206314" fill-opacity="1"></use></g></g><g><g><use xlink:href="#a3PidyA7xK" opacity="1" fill="#206314" fill-opacity="1"></use></g><g><use xlink:href="#d8cqqbPXX0" opacity="1" fill="#206314" fill-opacity="1"></use></g><g><use xlink:href="#bV9THvAwd" opacity="1" fill="#298418" fill-opacity="1"></use></g><g><use xlink:href="#a3we66P41" opacity="1" fill="#298418" fill-opacity="1"></use></g><g><use xlink:href="#f2KQAsw6L" opacity="1" fill="#206314" fill-opacity="1"></use></g></g></g><g><g><g><use xlink:href="#g25ocDYT3i" opacity="1" fill="#206314" fill-opacity="1"></use></g><g><use xlink:href="#c71SxUBHp" opacity="1" fill="#206314" fill-opacity="1"></use></g><g><use xlink:href="#a4TPRBe2Kr" opacity="1" fill="#298418" fill-opacity="1"></use></g><g><use xlink:href="#beqq5t5Gm" opacity="1" fill="#298418" fill-opacity="1"></use></g><g><use xlink:href="#a8VN5ax2j" opacity="1" fill="#206314" fill-opacity="1"></use></g></g><g><g><use xlink:href="#a2anIiMuif" opacity="1" fill="#206314" fill-opacity="1"></use></g><g><use xlink:href="#a11rx6BJKd" opacity="1" fill="#206314" fill-opacity="1"></use></g><g><use xlink:href="#auJnFUVpH" opacity="1" fill="#298418" fill-opacity="1"></use></g><g><use xlink:href="#b5twfkXxX" opacity="1" fill="#298418" fill-opacity="1"></use></g><g><use xlink:href="#c123WiEeFq" opacity="1" fill="#206314" fill-opacity="1"></use></g></g><g><g><use xlink:href="#c8ebxR9lWi" opacity="1" fill="#206314" fill-opacity="1"></use></g><g><use xlink:href="#g20MVbbDMW" opacity="1" fill="#206314" fill-opacity="1"></use></g><g><use xlink:href="#d1vocqBvzs" opacity="1" fill="#298418" fill-opacity="1"></use></g><g><use xlink:href="#d6IuGGbhv" opacity="1" fill="#298418" fill-opacity="1"></use></g><g><use xlink:href="#c13zlNBxhq" opacity="1" fill="#206314" fill-opacity="1"></use></g></g></g><g><g><g><use xlink:href="#bmrhdeYQN" opacity="1" fill="#206314" fill-opacity="1"></use></g><g><use xlink:href="#c7ewFeIshi" opacity="1" fill="#206314" fill-opacity="1"></use></g><g><use xlink:href="#bdrUfC94X" opacity="1" fill="#298418" fill-opacity="1"></use></g><g><use xlink:href="#a5CQ0abJqT" opacity="1" fill="#298418" fill-opacity="1"></use></g><g><use xlink:href="#bcGRobYIG" opacity="1" fill="#206314" fill-opacity="1"></use></g></g><g><g><use xlink:href="#b13g1TU32I" opacity="1" fill="#206314" fill-opacity="1"></use></g><g><use xlink:href="#i68ObZoR0y" opacity="1" fill="#206314" fill-opacity="1"></use></g><g><use xlink:href="#j2FnivUCW6" opacity="1" fill="#298418" fill-opacity="1"></use></g><g><use xlink:href="#a8mHYxIRSH" opacity="1" fill="#298418" fill-opacity="1"></use></g><g><use xlink:href="#b1Q15FNpD" opacity="1" fill="#206314" fill-opacity="1"></use></g></g><g><g><use xlink:href="#cqHWR5LZx" opacity="1" fill="#206314" fill-opacity="1"></use></g><g><use xlink:href="#b1aPMEOWro" opacity="1" fill="#206314" fill-opacity="1"></use></g><g><use xlink:href="#gn2JmcS6k" opacity="1" fill="#298418" fill-opacity="1"></use></g><g><use xlink:href="#a5VLhmHhy8" opacity="1" fill="#298418" fill-opacity="1"></use></g><g><use xlink:href="#l2oye8cZGs" opacity="1" fill="#206314" fill-opacity="1"></use></g></g></g><g><g><g><use xlink:href="#h4rFLV9H6o" opacity="1" fill="#206314" fill-opacity="1"></use></g><g><use xlink:href="#a1iXqyAUJ0" opacity="1" fill="#206314" fill-opacity="1"></use></g><g><use xlink:href="#b60m6po6N" opacity="1" fill="#298418" fill-opacity="1"></use></g><g><use xlink:href="#jfnP0S7z" opacity="1" fill="#298418" fill-opacity="1"></use></g><g><use xlink:href="#b40e1k8On2" opacity="1" fill="#206314" fill-opacity="1"></use></g></g><g><g><use xlink:href="#b2SHuVhBL3" opacity="1" fill="#206314" fill-opacity="1"></use></g><g><use xlink:href="#bRhQHw38w" opacity="1" fill="#206314" fill-opacity="1"></use></g><g><use xlink:href="#c1UYLxEM9z" opacity="1" fill="#298418" fill-opacity="1"></use></g><g><use xlink:href="#f7Rb0i6On" opacity="1" fill="#298418" fill-opacity="1"></use></g><g><use xlink:href="#gZnqT5bx4" opacity="1" fill="#206314" fill-opacity="1"></use></g></g><g><g><use xlink:href="#b1ghfuzKBN" opacity="1" fill="#206314" fill-opacity="1"></use></g><g><use xlink:href="#bhAkPMYuk" opacity="1" fill="#206314" fill-opacity="1"></use></g><g><use xlink:href="#bcynNWJcP" opacity="1" fill="#298418" fill-opacity="1"></use></g><g><use xlink:href="#cEwOmydDn" opacity="1" fill="#298418" fill-opacity="1"></use></g><g><use xlink:href="#fXAYsPJEN" opacity="1" fill="#206314" fill-opacity="1"></use></g></g></g></g><g><g><use xlink:href="#ac7ONWYWY" opacity="1" fill="#869ac6" fill-opacity="1"></use></g><g><g><g><use xlink:href="#a5GpL6TcD" opacity="1" fill="#206314" fill-opacity="1"></use></g><g><use xlink:href="#b7ZTZJvCm" opacity="1" fill="#206314" fill-opacity="1"></use></g><g><use xlink:href="#a1j5VC29sK" opacity="1" fill="#298418" fill-opacity="1"></use></g><g><use xlink:href="#a7GFuvtmkz" opacity="1" fill="#298418" fill-opacity="1"></use></g><g><use xlink:href="#d1Xn7nW6t0" opacity="1" fill="#206314" fill-opacity="1"></use></g></g><g><g><use xlink:href="#huQbPy6PB" opacity="1" fill="#206314" fill-opacity="1"></use></g><g><use xlink:href="#g1JQBJl359" opacity="1" fill="#206314" fill-opacity="1"></use></g><g><use xlink:href="#bjwtkQ84V" opacity="1" fill="#298418" fill-opacity="1"></use></g><g><use xlink:href="#eug63DNmk" opacity="1" fill="#298418" fill-opacity="1"></use></g><g><use xlink:href="#arMhICSCg" opacity="1" fill="#206314" fill-opacity="1"></use></g></g><g><g><use xlink:href="#aRMDbmI3e" opacity="1" fill="#206314" fill-opacity="1"></use></g><g><use xlink:href="#b1TpRHcCzL" opacity="1" fill="#206314" fill-opacity="1"></use></g><g><use xlink:href="#a1zokxO1tA" opacity="1" fill="#298418" fill-opacity="1"></use></g><g><use xlink:href="#g1pEvhUPbI" opacity="1" fill="#298418" fill-opacity="1"></use></g><g><use xlink:href="#b4j1T3lnrJ" opacity="1" fill="#206314" fill-opacity="1"></use></g></g></g><g><g><g><use xlink:href="#i20OnOikCV" opacity="1" fill="#206314" fill-opacity="1"></use></g><g><use xlink:href="#b6n8w3IX" opacity="1" fill="#206314" fill-opacity="1"></use></g><g><use xlink:href="#a1X3u92QXD" opacity="1" fill="#298418" fill-opacity="1"></use></g><g><use xlink:href="#f2G33Mo220" opacity="1" fill="#298418" fill-opacity="1"></use></g><g><use xlink:href="#aUkRW55gV" opacity="1" fill="#206314" fill-opacity="1"></use></g></g><g><g><use xlink:href="#a1EvY4l3Z4" opacity="1" fill="#206314" fill-opacity="1"></use></g><g><use xlink:href="#bRTVFmB3e" opacity="1" fill="#206314" fill-opacity="1"></use></g><g><use xlink:href="#a2UIdtVrqW" opacity="1" fill="#298418" fill-opacity="1"></use></g><g><use xlink:href="#aQPAZDyR7" opacity="1" fill="#298418" fill-opacity="1"></use></g><g><use xlink:href="#c2IERFWO7g" opacity="1" fill="#206314" fill-opacity="1"></use></g></g><g><g><use xlink:href="#acpXJAy86v" opacity="1" fill="#206314" fill-opacity="1"></use></g><g><use xlink:href="#hSwQe5Xwc" opacity="1" fill="#206314" fill-opacity="1"></use></g><g><use xlink:href="#aIjT0Dqmq" opacity="1" fill="#298418" fill-opacity="1"></use></g><g><use xlink:href="#d1enuXEMsi" opacity="1" fill="#298418" fill-opacity="1"></use></g><g><use xlink:href="#h5FphL4aSM" opacity="1" fill="#206314" fill-opacity="1"></use></g></g></g><g><g><g><use xlink:href="#bYPTFYxgq" opacity="1" fill="#206314" fill-opacity="1"></use></g><g><use xlink:href="#b22GvNQ5Cw" opacity="1" fill="#206314" fill-opacity="1"></use></g><g><use xlink:href="#f2P9phSH4m" opacity="1" fill="#298418" fill-opacity="1"></use></g><g><use xlink:href="#bd0288mBW" opacity="1" fill="#298418" fill-opacity="1"></use></g><g><use xlink:href="#a1iwa1e6b4" opacity="1" fill="#206314" fill-opacity="1"></use></g></g><g><g><use xlink:href="#b1kEOHcP4k" opacity="1" fill="#206314" fill-opacity="1"></use></g><g><use xlink:href="#e1GmjheDxf" opacity="1" fill="#206314" fill-opacity="1"></use></g><g><use xlink:href="#a1rBeJKffX" opacity="1" fill="#298418" fill-opacity="1"></use></g><g><use xlink:href="#daz0WbK3u" opacity="1" fill="#298418" fill-opacity="1"></use></g><g><use xlink:href="#c3OJEbMgQ" opacity="1" fill="#206314" fill-opacity="1"></use></g></g><g><g><use xlink:href="#d1fikw2e1T" opacity="1" fill="#206314" fill-opacity="1"></use></g><g><use xlink:href="#g1zIND7ZwK" opacity="1" fill="#206314" fill-opacity="1"></use></g><g><use xlink:href="#bMb0iFnak" opacity="1" fill="#298418" fill-opacity="1"></use></g><g><use xlink:href="#bSLdnaG27" opacity="1" fill="#298418" fill-opacity="1"></use></g><g><use xlink:href="#d1EUX2Uo3" opacity="1" fill="#206314" fill-opacity="1"></use></g></g></g><g><g><g><use xlink:href="#bWpsyhiLS" opacity="1" fill="#206314" fill-opacity="1"></use></g><g><use xlink:href="#b39gUz2w7K" opacity="1" fill="#206314" fill-opacity="1"></use></g><g><use xlink:href="#a18tlfDEt" opacity="1" fill="#298418" fill-opacity="1"></use></g><g><use xlink:href="#j13FDstSXq" opacity="1" fill="#298418" fill-opacity="1"></use></g><g><use xlink:href="#b45fdLk52u" opacity="1" fill="#206314" fill-opacity="1"></use></g></g><g><g><use xlink:href="#b2f5R6e9kP" opacity="1" fill="#206314" fill-opacity="1"></use></g><g><use xlink:href="#b2sBT4duFe" opacity="1" fill="#206314" fill-opacity="1"></use></g><g><use xlink:href="#mTu3KMv" opacity="1" fill="#298418" fill-opacity="1"></use></g><g><use xlink:href="#cJ7iisiWm" opacity="1" fill="#298418" fill-opacity="1"></use></g><g><use xlink:href="#e6o2r5UCh" opacity="1" fill="#206314" fill-opacity="1"></use></g></g><g><g><use xlink:href="#b180vkmbtY" opacity="1" fill="#206314" fill-opacity="1"></use></g><g><use xlink:href="#f1PGhYIsmu" opacity="1" fill="#206314" fill-opacity="1"></use></g><g><use xlink:href="#bRBw6UaAi" opacity="1" fill="#298418" fill-opacity="1"></use></g><g><use xlink:href="#a2j2272GKE" opacity="1" fill="#298418" fill-opacity="1"></use></g><g><use xlink:href="#a6uiPfhp83" opacity="1" fill="#206314" fill-opacity="1"></use></g></g></g><g><g><g><use xlink:href="#jaNvhYPN8" opacity="1" fill="#206314" fill-opacity="1"></use></g><g><use xlink:href="#a2mxuGoA6" opacity="1" fill="#206314" fill-opacity="1"></use></g><g><use xlink:href="#bFvBOpUKB" opacity="1" fill="#298418" fill-opacity="1"></use></g><g><use xlink:href="#a4q2nDh5AM" opacity="1" fill="#298418" fill-opacity="1"></use></g><g><use xlink:href="#b1v4kG0wcR" opacity="1" fill="#206314" fill-opacity="1"></use></g></g><g><g><use xlink:href="#a6U1O7P5X" opacity="1" fill="#206314" fill-opacity="1"></use></g><g><use xlink:href="#b13TvNzetm" opacity="1" fill="#206314" fill-opacity="1"></use></g><g><use xlink:href="#aOoAKuGDj" opacity="1" fill="#298418" fill-opacity="1"></use></g><g><use xlink:href="#g3habNzjx1" opacity="1" fill="#298418" fill-opacity="1"></use></g><g><use xlink:href="#bdkecUi7k" opacity="1" fill="#206314" fill-opacity="1"></use></g></g><g><g><use xlink:href="#cjBz2qnWb" opacity="1" fill="#206314" fill-opacity="1"></use></g><g><use xlink:href="#d1gE2Dph0q" opacity="1" fill="#206314" fill-opacity="1"></use></g><g><use xlink:href="#bKUGFB0y" opacity="1" fill="#298418" fill-opacity="1"></use></g><g><use xlink:href="#bBcC7kOWg" opacity="1" fill="#298418" fill-opacity="1"></use></g><g><use xlink:href="#c30uoEQEt" opacity="1" fill="#206314" fill-opacity="1"></use></g></g></g></g></g><g class="cloud big"><g><use xlink:href="#aq8pONBCN" opacity="1" fill="#8de2ea" fill-opacity="1"></use></g><g><use xlink:href="#bpcbLynrT" opacity="1" fill="#ffffff" fill-opacity="1"></use></g></g><g class="cloud mid"><g><use xlink:href="#d4GBUmNZt9" opacity="1" fill="#8de2ea" fill-opacity="1"></use></g><g><use xlink:href="#a43UiuDUR" opacity="1" fill="#ffffff" fill-opacity="1"></use></g></g><g class="cloud small"><g><use xlink:href="#j2Z4bHJbfk" opacity="1" fill="#8de2ea" fill-opacity="1"></use></g><g><use xlink:href="#hPeLXXiEM" opacity="1" fill="#ffffff" fill-opacity="1"></use></g></g><g class="plane"><g><use xlink:href="#huxZD9odK" opacity="1" fill="#c2c2c2" fill-opacity="1"></use></g><g><use xlink:href="#a3UhN29v9d" opacity="1" fill="#c2c2c2" fill-opacity="1"></use></g><g><use xlink:href="#b14Q0hJ60R" opacity="1" fill="#c2c2c2" fill-opacity="1"></use></g><g><use xlink:href="#a4lYiVVNxf" opacity="1" fill="#25b7f2" fill-opacity="1"></use></g><g><use xlink:href="#b5e2QiJpH" opacity="1" fill="#25b7f2" fill-opacity="1"></use></g><g><use xlink:href="#b3e2zpcLW" opacity="1" fill="#a4a4a4" fill-opacity="1"></use></g><g><use xlink:href="#b4bowjRp7K" opacity="1" fill="#c2c2c2" fill-opacity="1"></use></g><g><use xlink:href="#dyvAgWZsg" opacity="1" fill="#c2c2c2" fill-opacity="1"></use></g><g><use xlink:href="#aEN9gXkBP" opacity="1" fill="#000000" fill-opacity="1"></use></g><g><use xlink:href="#c5mKUZlX0F" opacity="1" fill="#c2c2c2" fill-opacity="1"></use></g><g><use xlink:href="#a62yX9HEAS" opacity="1" fill="#000000" fill-opacity="1"></use></g><g><use xlink:href="#eHL7ttIsc" opacity="1" fill="#c2c2c2" fill-opacity="1"></use></g><g><use xlink:href="#g13O2Luo0u" opacity="1" fill="#b33f3f" fill-opacity="1"></use></g><g><use xlink:href="#eCaZQ4Wqk" opacity="1" fill="#d1d1d1" fill-opacity="1"></use></g><g><use xlink:href="#a5SyNE9oj" opacity="1" fill="#ffffff" fill-opacity="1"></use></g><g><use xlink:href="#g3Eu0H6fGh" opacity="1" fill="#ffffff" fill-opacity="1"></use></g><g><use xlink:href="#a1lmbDEO53" opacity="1" fill="#e3e3e3" fill-opacity="1"></use></g><g><use xlink:href="#htg0RQktp" opacity="1" fill="#c2c2c2" fill-opacity="1"></use></g><g><use xlink:href="#c3dIwE1s" opacity="1" fill="#b33f3f" fill-opacity="1"></use></g><g><use xlink:href="#oNWJn8T27" opacity="1" fill="#ffffff" fill-opacity="1"></use></g><g><use xlink:href="#agWMti2qo" opacity="1" fill="#ffffff" fill-opacity="1"></use></g><g><use xlink:href="#c3rNPtKju3" opacity="1" fill="#c2c2c2" fill-opacity="1"></use></g><g><use xlink:href="#b7JgNZhCmQ" opacity="1" fill="#b33f3f" fill-opacity="1"></use></g><g><use xlink:href="#d1FynI3h6Q" opacity="1" fill="#d7d7d7" fill-opacity="1"></use></g><g><use xlink:href="#aajfSe7vg" opacity="1" fill="#e3e3e3" fill-opacity="1"></use></g><g><use xlink:href="#b4fhDbABwm" opacity="1" fill="#454545" fill-opacity="1"></use></g><g><g><use xlink:href="#b1xq7yakg" opacity="1" fill="#b7b6b6" fill-opacity="1"></use></g><g><use xlink:href="#bH3s3NTef" opacity="1" fill="#b6b5b5" fill-opacity="1"></use></g></g><g class="prop"><g><use xlink:href="#f1LtIfbLfz" opacity="0.6" fill="#e1e1e1" fill-opacity="1"></use></g><g><use xlink:href="#f58SyKrTl" opacity="0.6" fill="#e1e1e1" fill-opacity="1"></use></g></g></g><g class="white-out"><use xlink:href="#g2Mgah6fIJ" opacity="1" fill="#ffffff" fill-opacity="1"></use></g></g></svg>