<svg version="1.1" xmlns="http://www.w3.org/2000/svg" xmlns:xlink="http://www.w3.org/1999/xlink" preserveAspectRatio="xMidYMid meet" viewBox="0 0 640 640" height="100%"><defs><path d="M-3.52 144.03L641 144.03L641 615.29L-3.52 615.29L-3.52 144.03Z" id="aicNlUt2M"></path><path d="M436.92 362.32L409.31 376.39L430.63 387.92L385.26 393.69L391.47 410.28L332.42 414.24L335.39 431.91L266.15 442.01L273.79 412.44L291.64 410.28L306.5 382.51L324.77 387.92L340.79 365.57L364.7 363.77L394.44 369.9L421.21 359.44L436.92 362.32Z" id="d4I2Xyw7BK"></path><path d="M431.62 325.95L431.62 363.83L420.57 363.83L421.84 325.95L431.62 325.95Z" id="a24z7Tuib"></path><path d="M431.19 363.83L441.39 361.3L441.39 325.95L429.43 325.95L431.19 363.83Z" id="bAUVdFY6a"></path><path d="M429.08 225.63L395.83 339.72L340.14 310.33L429.08 225.63Z" id="d8ppsHuO5r"></path><path d="M483.36 338.71L394.94 339.7L429.08 225.63L483.36 338.71Z" id="a1eeRZzPZD"></path><path d="M428.1 226.42L514.47 303.98L482.43 338.52L428.1 226.42Z" id="b3UOR0XKsU"></path><path d="M434.06 184.8L407.05 298.89L361.82 269.5L434.06 184.8Z" id="c3hinTAJOf"></path><path d="M478.15 297.87L406.33 298.86L434.06 184.8L478.15 297.87Z" id="fsOLeQWCY"></path><path d="M433.27 185.59L503.42 263.14L477.39 297.69L433.27 185.59Z" id="d8EJNTVkD"></path><path d="M431.16 174.63L409.18 253.37L372.36 233.09L431.16 174.63Z" id="bbIWWG5i0"></path><path d="M467.04 252.67L408.59 253.35L431.16 174.63L467.04 252.67Z" id="a1iEcTyKvw"></path><path d="M430.51 175.18L487.61 228.7L466.43 252.54L430.51 175.18Z" id="a4pZWHz6uo"></path><path d="M464.34 263.54L488.99 248.03L479.64 237.57L464.34 252L408.67 253.37L464.34 263.54Z" id="aZ12dJ1g"></path><path d="M488.99 282.68L476.63 297.47L406.11 298.89L467.29 307.92L495.32 286.65L488.99 282.68Z" id="aozzRiLot"></path><path d="M294.97 474.98L122.87 406.68L176.73 384.36L349.52 452.44L294.97 474.98Z" id="f1ZadIe1BW"></path><path d="M142.68 393.94L157.44 403.58L140.71 410.69L142.68 393.94Z" id="d3u3QtxZq"></path><path d="M167.94 404.43L182.69 414.07L165.97 421.17L167.94 404.43Z" id="a8ceUSyhhd"></path><path d="M261.38 441.96L276.14 451.59L259.41 458.7L261.38 441.96Z" id="e1xXnROzEc"></path><path d="M115.44 322.39L115.44 386.75L297.29 460.04L297.29 440.51L287.53 390.68L115.44 322.39Z" id="e2rGuelKP7"></path><path d="M356.07 408.21C356.07 416.53 354.6 423.28 352.78 423.28C350.96 423.28 349.49 416.53 349.49 408.21C349.49 399.9 350.96 393.14 352.78 393.14C354.6 393.14 356.07 399.9 356.07 408.21Z" id="b3mBYlv0V7"></path><path d="" id="bAteHeBKg"></path><path d="M287.53 391.24L115.44 322.95L169.29 300.63L342.08 368.71L287.53 391.24Z" id="e465kIMvJy"></path><path d="M297.29 440.51L352.54 418.37L352.54 436.97L297.29 460.04L297.29 440.51Z" id="b4FKup4kL"></path><path d="M297.29 441.07L352.54 418.94L342.08 368.34L286.68 391.24L297.29 441.07Z" id="aq6GwrotW"></path><path d="M115.44 322.95L130.65 329.28L154.57 402.32L139.07 396.99L115.44 335.97L115.44 322.95Z" id="k3PyVfOkn"></path><path d="M150.09 393.06C150.09 403.03 144.54 411.13 137.7 411.13C130.87 411.13 125.32 403.03 125.32 393.06C125.32 383.09 130.87 374.99 137.7 374.99C144.54 374.99 150.09 383.09 150.09 393.06Z" id="b35ndqG4NK"></path><path d="M165.72 408.86L142.95 334.49L164.03 341.96L188.56 415.96L165.72 408.86Z" id="d18j1rKTc"></path><path d="M142.09 393.06C142.09 398.33 139.53 402.61 136.37 402.61C133.22 402.61 130.65 398.33 130.65 393.06C130.65 387.79 133.22 383.5 136.37 383.5C139.53 383.5 142.09 387.79 142.09 393.06Z" id="a2Y5PonbWK"></path><path d="M175.34 403.55C175.34 413.52 169.8 421.62 162.96 421.62C156.13 421.62 150.58 413.52 150.58 403.55C150.58 393.57 156.13 385.48 162.96 385.48C169.8 385.48 175.34 393.57 175.34 403.55Z" id="b321dDfqn"></path><path d="M221.98 365.49L256.4 444.23L239.8 437.45L197.18 355.69L221.98 365.49Z" id="bSL4sXKZ2"></path><path d="M167.35 403.55C167.35 408.82 164.79 413.1 161.63 413.1C158.47 413.1 155.91 408.82 155.91 403.55C155.91 398.27 158.47 393.99 161.63 393.99C164.79 393.99 167.35 398.27 167.35 403.55Z" id="bsc4MQTrL"></path><path d="M268.79 441.07C268.79 451.04 263.24 459.14 256.4 459.14C249.57 459.14 244.02 451.04 244.02 441.07C244.02 431.1 249.57 423 256.4 423C263.24 423 268.79 431.1 268.79 441.07Z" id="fqvYP1eVV"></path><path d="M260.79 441.07C260.79 446.34 258.23 450.63 255.07 450.63C251.92 450.63 249.36 446.34 249.36 441.07C249.36 435.8 251.92 431.52 255.07 431.52C258.23 431.52 260.79 435.8 260.79 441.07Z" id="b1YloQJf50"></path><path d="M179.04 332.57L179.04 317.59L152.65 307.45L152.65 322.46L179.04 332.57Z" id="a2E053Db6"></path><path d="" id="a1kKteul8j"></path><path d="M179.04 317.25L198.15 309.7L172.24 299.56L152.65 307.45L179.04 317.25Z" id="bagRN7oi"></path><path d="M197.73 325.62L197.73 309.68L178.62 317.55L178.62 332.86L197.73 325.62Z" id="d2b0V7BpFg"></path><path d="M264.49 363.52L264.49 348.54L238.1 338.4L238.1 353.41L264.49 363.52Z" id="b4tLaZO4E3"></path><path d="" id="mMirU0vVk"></path><path d="M264.49 348.2L283.6 340.65L257.69 330.51L238.1 338.4L264.49 348.2Z" id="d7nKAondBM"></path><path d="M283.18 356.57L283.18 340.63L264.07 348.5L264.07 363.81L283.18 356.57Z" id="a3QUBBo21I"></path><path d="M272.73 393.94L272.73 421.17L287.07 427.12L280.48 396.99L272.73 393.94Z" id="c3qSxLTnG9"></path><path d="M230.38 376.55L230.38 394.34L258.4 405.94L258.4 388.08L230.38 376.55Z" id="aHGrtaF3I"></path><path d="" id="e1GIbMiWw9"></path><path d="M163.45 348.95L163.45 374.99L150.58 369.78L150.58 344.11L163.45 348.95Z" id="aIlSfSH4"></path><path d="M308.79 448.03C308.79 451.88 306.88 455 304.53 455C302.18 455 300.28 451.88 300.28 448.03C300.28 444.19 302.18 441.07 304.53 441.07C306.88 441.07 308.79 444.19 308.79 448.03Z" id="cNKrsSTU2"></path><path d="M350.59 430.78C350.59 434.63 348.69 437.75 346.34 437.75C343.99 437.75 342.08 434.63 342.08 430.78C342.08 426.94 343.99 423.82 346.34 423.82C348.69 423.82 350.59 426.94 350.59 430.78Z" id="aag2T10WN"></path><path d="" id="b8jkOwnca9"></path><path d="M295.98 430.65C295.98 438.97 294.5 445.72 292.68 445.72C290.87 445.72 289.39 438.97 289.39 430.65C289.39 422.34 290.87 415.59 292.68 415.59C294.5 415.59 295.98 422.34 295.98 430.65Z" id="b4K3wAc1g"></path><path d="M107.95 511.2L80.34 525.27L101.66 536.8L56.29 542.57L62.49 559.16L3.45 563.12L6.42 580.79L-62.83 590.89L-55.18 561.32L-37.34 559.16L-22.47 531.39L-4.2 536.8L11.82 514.45L35.73 512.65L65.47 518.78L92.24 508.32L107.95 511.2Z" id="fNzDo4lSi"></path><path d="M102.65 474.83L102.65 512.71L91.6 512.71L92.87 474.83L102.65 474.83Z" id="c2tnZcR1Uz"></path><path d="M102.22 512.71L112.42 510.18L112.42 474.83L100.46 474.83L102.22 512.71Z" id="aLoCGDkmT"></path><path d="M100.11 374.51L66.86 488.6L11.17 459.21L100.11 374.51Z" id="b1qFquGHWl"></path><path d="M154.39 487.59L65.97 488.58L100.11 374.51L154.39 487.59Z" id="gljCWcwUH"></path><path d="M99.13 375.3L185.5 452.86L153.46 487.4L99.13 375.3Z" id="b2NsztdFV"></path><path d="M105.09 333.68L78.08 447.77L32.85 418.38L105.09 333.68Z" id="a7HlUVbB"></path><path d="M149.18 446.75L77.36 447.74L105.09 333.68L149.18 446.75Z" id="d3tkkxpEgY"></path><path d="M104.3 334.47L174.45 412.02L148.42 446.57L104.3 334.47Z" id="c1F9LrKn0d"></path><path d="M102.19 323.51L80.21 402.25L43.39 381.97L102.19 323.51Z" id="dwQKgg3Bf"></path><path d="M138.07 401.55L79.62 402.23L102.19 323.51L138.07 401.55Z" id="c3BXUnK8cE"></path><path d="M101.54 324.06L158.64 377.58L137.46 401.42L101.54 324.06Z" id="aNIVduVL9"></path><path d="M135.37 412.42L160.02 396.91L150.67 386.45L135.37 400.88L79.7 402.25L135.37 412.42Z" id="b4kMLEgWS6"></path><path d="M160.02 431.56L147.66 446.35L77.14 447.77L138.31 456.8L166.35 435.53L160.02 431.56Z" id="f15OQve8ek"></path><path d="M439.97 492.67C435.87 492.3 432.77 489.93 433.05 487.37C433.33 484.82 436.89 483.05 440.98 483.42C445.08 483.79 448.18 486.16 447.9 488.72C447.62 491.27 444.07 493.05 439.97 492.67Z" id="a1LHNjODql"></path><path d="M432.09 487.84C433.86 490.38 432.96 493.78 430.09 495.43C427.22 497.07 423.46 496.33 421.69 493.79C419.93 491.25 420.83 487.85 423.7 486.2C426.57 484.56 430.33 485.3 432.09 487.84Z" id="d3JvDLuBq"></path><path d="M453.15 495.59L461.34 498.25L448.06 505.43L427.93 506.76L413.64 500.11L421.25 498.83L453.15 495.59Z" id="b2eJZcjq6O"></path><path d="M436.33 496.3C433.79 491.52 436.23 484.7 443.65 475.84C451.06 466.98 450.38 459.36 441.6 452.98C447.84 460.77 446.38 467.86 437.21 474.24C428.04 480.62 424.62 487.53 426.97 494.97L436.33 496.3Z" id="a2bRl8n9jC"></path><path d="M445.29 496.3C443.71 492.9 445.23 488.04 449.84 481.74C454.46 475.43 454.03 470.01 448.57 465.47C452.45 471.02 451.54 476.06 445.84 480.6C440.13 485.14 438 490.06 439.46 495.36L445.29 496.3Z" id="clEdirXq"></path><path d="M441.49 496.88C443.7 490.96 441.57 482.5 435.13 471.52C428.68 460.54 429.27 451.1 436.91 443.19C431.48 452.86 432.75 461.64 440.73 469.54C448.7 477.45 451.67 486.01 449.64 495.24L441.49 496.88Z" id="d7bOWPS4kp"></path><path d="M432.74 496.88C434.32 492.95 432.8 487.33 428.18 480.04C423.57 472.74 423.99 466.47 429.46 461.22C425.57 467.64 426.48 473.47 432.19 478.72C437.9 483.97 440.03 489.66 438.57 495.79L432.74 496.88Z" id="c72GLmgZI8"></path><path d="M457.1 492.72C457.1 495.02 454.81 496.88 451.98 496.88C449.15 496.88 446.86 495.02 446.86 492.72C446.86 490.43 449.15 488.56 451.98 488.56C454.81 488.56 457.1 490.43 457.1 492.72Z" id="h7NU26jTdU"></path><path d="M426.39 500.22C422.29 499.85 419.19 497.48 419.47 494.92C419.75 492.37 423.3 490.59 427.4 490.96C431.5 491.34 434.6 493.71 434.32 496.27C434.04 498.82 430.48 500.59 426.39 500.22Z" id="e1jI2L5WqA"></path><path d="M456.07 493.35C457.48 495.26 456.02 498.39 452.81 500.34C449.6 502.29 445.85 502.33 444.44 500.42C443.03 498.51 444.5 495.38 447.71 493.43C450.92 491.48 454.67 491.44 456.07 493.35Z" id="eTU469Vhc"></path><path d="M444.21 495.24C445.98 497.78 445.08 501.18 442.21 502.82C439.34 504.46 435.58 503.73 433.81 501.19C432.05 498.64 432.95 495.24 435.82 493.6C438.69 491.96 442.45 492.69 444.21 495.24Z" id="a406TTD2w0"></path><path d="M441.61 413.72C441.61 417.16 438.04 419.96 433.64 419.96C429.24 419.96 425.66 417.16 425.66 413.72C425.66 410.28 429.24 407.48 433.64 407.48C438.04 407.48 441.61 410.28 441.61 413.72Z" id="e4tVo30Ald"></path><path d="M450.33 417.18C450.33 420.62 446.76 423.41 442.36 423.41C437.95 423.41 434.38 420.62 434.38 417.18C434.38 413.73 437.95 410.94 442.36 410.94C446.76 410.94 450.33 413.73 450.33 417.18Z" id="h15CfDKR9E"></path><path d="M450.15 411.3C450.15 414.74 446.58 417.54 442.18 417.54C437.78 417.54 434.2 414.74 434.2 411.3C434.2 407.85 437.78 405.06 442.18 405.06C446.58 405.06 450.15 407.85 450.15 411.3Z" id="a2xyP9fZ3E"></path><path d="M458.67 415.7C458.67 419.15 455.09 421.94 450.69 421.94C446.29 421.94 442.72 419.15 442.72 415.7C442.72 412.26 446.29 409.47 450.69 409.47C455.09 409.47 458.67 412.26 458.67 415.7Z" id="afSVnhA5b"></path><path d="M436.94 435.39C436.94 438.84 433.37 441.63 428.97 441.63C424.57 441.63 420.99 438.84 420.99 435.39C420.99 431.95 424.57 429.15 428.97 429.15C433.37 429.15 436.94 431.95 436.94 435.39Z" id="mk5xKZyPW"></path><path d="M445.66 438.85C445.66 442.29 442.09 445.09 437.68 445.09C433.28 445.09 429.71 442.29 429.71 438.85C429.71 435.41 433.28 432.61 437.68 432.61C442.09 432.61 445.66 435.41 445.66 438.85Z" id="bJIy1322D"></path><path d="M445.48 432.97C445.48 436.41 441.91 439.21 437.51 439.21C433.11 439.21 429.53 436.41 429.53 432.97C429.53 429.53 433.11 426.73 437.51 426.73C441.91 426.73 445.48 429.53 445.48 432.97Z" id="b30kTCZCTt"></path><path d="M454 437.38C454 440.82 450.42 443.62 446.02 443.62C441.62 443.62 438.05 440.82 438.05 437.38C438.05 433.93 441.62 431.14 446.02 431.14C450.42 431.14 454 433.93 454 437.38Z" id="b56jiFOV0"></path></defs><g><g><g><use xlink:href="#aicNlUt2M" opacity="1" fill="#bdcd87" fill-opacity="1"></use></g><g><g><use xlink:href="#d4I2Xyw7BK" opacity="0.66" fill="#898989" fill-opacity="1"></use></g><g><g><use xlink:href="#a24z7Tuib" opacity="1" fill="#6d613a" fill-opacity="1"></use></g><g><use xlink:href="#bAUVdFY6a" opacity="1" fill="#bb9861" fill-opacity="1"></use></g></g><g><use xlink:href="#d8ppsHuO5r" opacity="1" fill="#85a061" fill-opacity="1"></use></g><g><use xlink:href="#a1eeRZzPZD" opacity="1" fill="#98bb4c" fill-opacity="1"></use></g><g><use xlink:href="#b3UOR0XKsU" opacity="1" fill="#a3ce75" fill-opacity="1"></use></g><g><g><use xlink:href="#c3hinTAJOf" opacity="1" fill="#85a061" fill-opacity="1"></use></g><g><use xlink:href="#fsOLeQWCY" opacity="1" fill="#98bb4c" fill-opacity="1"></use></g><g><use xlink:href="#d8EJNTVkD" opacity="1" fill="#a3ce75" fill-opacity="1"></use></g></g><g><g><use xlink:href="#bbIWWG5i0" opacity="1" fill="#85a061" fill-opacity="1"></use></g><g><use xlink:href="#a1iEcTyKvw" opacity="1" fill="#98bb4c" fill-opacity="1"></use></g><g><use xlink:href="#a4pZWHz6uo" opacity="1" fill="#a3ce75" fill-opacity="1"></use></g></g><g><use xlink:href="#aZ12dJ1g" opacity="0.4" fill="#7c7c7c" fill-opacity="1"></use></g><g><use xlink:href="#aozzRiLot" opacity="0.43" fill="#898989" fill-opacity="1"></use></g></g><g><g><use xlink:href="#f1ZadIe1BW" opacity="1" fill="#717171" fill-opacity="1"></use></g><g><use xlink:href="#d3u3QtxZq" opacity="1" fill="#4e4e4e" fill-opacity="1"></use></g><g><use xlink:href="#a8ceUSyhhd" opacity="1" fill="#4e4e4e" fill-opacity="1"></use></g><g><use xlink:href="#e1xXnROzEc" opacity="1" fill="#4e4e4e" fill-opacity="1"></use></g><g><use xlink:href="#e2rGuelKP7" opacity="1" fill="#dddddd" fill-opacity="1"></use></g><g><use xlink:href="#b3mBYlv0V7" opacity="1" fill="#898989" fill-opacity="1"></use></g><g><g><use xlink:href="#bAteHeBKg" opacity="1" fill-opacity="0" stroke="#000000" stroke-width="1" stroke-opacity="1"></use></g></g><g><use xlink:href="#e465kIMvJy" opacity="1" fill="#ffffff" fill-opacity="1"></use></g><g><use xlink:href="#b4FKup4kL" opacity="1" fill="#909090" fill-opacity="1"></use></g><g><use xlink:href="#aq6GwrotW" opacity="1" fill="#6fd8ff" fill-opacity="1"></use></g><g><use xlink:href="#k3PyVfOkn" opacity="1" fill="#45beab" fill-opacity="1"></use></g><g><use xlink:href="#b35ndqG4NK" opacity="1" fill="#4e4e4e" fill-opacity="1"></use></g><g><use xlink:href="#d18j1rKTc" opacity="1" fill="#c74d4d" fill-opacity="1"></use></g><g><use xlink:href="#a2Y5PonbWK" opacity="1" fill="#dddddd" fill-opacity="1"></use></g><g><use xlink:href="#b321dDfqn" opacity="1" fill="#4e4e4e" fill-opacity="1"></use></g><g><use xlink:href="#bSL4sXKZ2" opacity="1" fill="#7da732" fill-opacity="1"></use></g><g><use xlink:href="#bsc4MQTrL" opacity="1" fill="#dddddd" fill-opacity="1"></use></g><g><use xlink:href="#fqvYP1eVV" opacity="1" fill="#4e4e4e" fill-opacity="1"></use></g><g><use xlink:href="#b1YloQJf50" opacity="1" fill="#dddddd" fill-opacity="1"></use></g><g><g><use xlink:href="#a2E053Db6" opacity="1" fill="#dddddd" fill-opacity="1"></use></g><g><g><use xlink:href="#a1kKteul8j" opacity="1" fill-opacity="0" stroke="#4e0f0f" stroke-width="1" stroke-opacity="1"></use></g></g><g><use xlink:href="#bagRN7oi" opacity="1" fill="#ffffff" fill-opacity="1"></use></g><g><use xlink:href="#d2b0V7BpFg" opacity="1" fill="#909090" fill-opacity="1"></use></g></g><g><g><use xlink:href="#b4tLaZO4E3" opacity="1" fill="#dddddd" fill-opacity="1"></use></g><g><g><use xlink:href="#mMirU0vVk" opacity="1" fill-opacity="0" stroke="#4e0f0f" stroke-width="1" stroke-opacity="1"></use></g></g><g><use xlink:href="#d7nKAondBM" opacity="1" fill="#ffffff" fill-opacity="1"></use></g><g><use xlink:href="#a3QUBBo21I" opacity="1" fill="#909090" fill-opacity="1"></use></g></g><g><use xlink:href="#c3qSxLTnG9" opacity="1" fill="#6fd8ff" fill-opacity="1"></use></g><g><use xlink:href="#aHGrtaF3I" opacity="1" fill="#6fd8ff" fill-opacity="1"></use></g><g><g><use xlink:href="#e1GIbMiWw9" opacity="1" fill-opacity="0" stroke="#000000" stroke-width="1" stroke-opacity="1"></use></g></g><g><use xlink:href="#aIlSfSH4" opacity="1" fill="#6fd8ff" fill-opacity="1"></use></g><g><use xlink:href="#cNKrsSTU2" opacity="1" fill="#ffffff" fill-opacity="1"></use></g><g><use xlink:href="#aag2T10WN" opacity="1" fill="#ffffff" fill-opacity="1"></use></g><g><g><use xlink:href="#b8jkOwnca9" opacity="1" fill-opacity="0" stroke="#8c8c8c" stroke-width="1" stroke-opacity="1"></use></g></g><g><use xlink:href="#b4K3wAc1g" opacity="1" fill="#898989" fill-opacity="1"></use></g></g><g><g><use xlink:href="#fNzDo4lSi" opacity="0.66" fill="#898989" fill-opacity="1"></use></g><g><g><use xlink:href="#c2tnZcR1Uz" opacity="1" fill="#6d613a" fill-opacity="1"></use></g><g><use xlink:href="#aLoCGDkmT" opacity="1" fill="#bb9861" fill-opacity="1"></use></g></g><g><use xlink:href="#b1qFquGHWl" opacity="1" fill="#85a061" fill-opacity="1"></use></g><g><use xlink:href="#gljCWcwUH" opacity="1" fill="#98bb4c" fill-opacity="1"></use></g><g><use xlink:href="#b2NsztdFV" opacity="1" fill="#a3ce75" fill-opacity="1"></use></g><g><g><use xlink:href="#a7HlUVbB" opacity="1" fill="#85a061" fill-opacity="1"></use></g><g><use xlink:href="#d3tkkxpEgY" opacity="1" fill="#98bb4c" fill-opacity="1"></use></g><g><use xlink:href="#c1F9LrKn0d" opacity="1" fill="#a3ce75" fill-opacity="1"></use></g></g><g><g><use xlink:href="#dwQKgg3Bf" opacity="1" fill="#85a061" fill-opacity="1"></use></g><g><use xlink:href="#c3BXUnK8cE" opacity="1" fill="#98bb4c" fill-opacity="1"></use></g><g><use xlink:href="#aNIVduVL9" opacity="1" fill="#a3ce75" fill-opacity="1"></use></g></g><g><use xlink:href="#b4kMLEgWS6" opacity="0.4" fill="#7c7c7c" fill-opacity="1"></use></g><g><use xlink:href="#f15OQve8ek" opacity="0.43" fill="#898989" fill-opacity="1"></use></g></g><g><g><use xlink:href="#a1LHNjODql" opacity="1" fill="#a7a7a7" fill-opacity="1"></use></g><g><use xlink:href="#d3JvDLuBq" opacity="1" fill="#716f6f" fill-opacity="1"></use></g><g><use xlink:href="#b2eJZcjq6O" opacity="0.62" fill="#595858" fill-opacity="1"></use></g><g class="flame ts-3"><use xlink:href="#a2bRl8n9jC" opacity="1" fill="#f4cd50" fill-opacity="1"></use></g><g class="flame ts-2"><use xlink:href="#clEdirXq" opacity="1" fill="#f4cd50" fill-opacity="1"></use></g><g class="flame ts-1"><use xlink:href="#d7bOWPS4kp" opacity="1" fill="#f8934d" fill-opacity="1"></use></g><g class="flame ts-0"><use xlink:href="#c72GLmgZI8" opacity="1" fill="#f8934d" fill-opacity="1"></use></g><g><use xlink:href="#h7NU26jTdU" opacity="1" fill="#716f6f" fill-opacity="1"></use></g><g><use xlink:href="#e1jI2L5WqA" opacity="1" fill="#a7a7a7" fill-opacity="1"></use></g><g><use xlink:href="#eTU469Vhc" opacity="1" fill="#a7a7a7" fill-opacity="1"></use></g><g><use xlink:href="#a406TTD2w0" opacity="1" fill="#716f6f" fill-opacity="1"></use></g></g><g class="smoke-wrapper s-0"><g class="smoke s-0"><g><use xlink:href="#e4tVo30Ald" opacity="1" fill="#909090" fill-opacity="1"></use></g><g><use xlink:href="#h15CfDKR9E" opacity="1" fill="#909090" fill-opacity="1"></use></g><g><use xlink:href="#a2xyP9fZ3E" opacity="1" fill="#909090" fill-opacity="1"></use></g><g><use xlink:href="#afSVnhA5b" opacity="1" fill="#909090" fill-opacity="1"></use></g></g></g><g class="smoke-wrapper s-1"><g class="smoke s-1"><g><use xlink:href="#mk5xKZyPW" opacity="1" fill="#909090" fill-opacity="1"></use></g><g><use xlink:href="#bJIy1322D" opacity="1" fill="#909090" fill-opacity="1"></use></g><g><use xlink:href="#b30kTCZCTt" opacity="1" fill="#909090" fill-opacity="1"></use></g><g><use xlink:href="#b56jiFOV0" opacity="1" fill="#909090" fill-opacity="1"></use></g></g></g>
</g></g></svg>