<svg xmlns="http://www.w3.org/2000/svg" xmlns:xlink="http://www.w3.org/1999/xlink" version="1.1" preserveAspectRatio="xMidYMid meet" viewBox="0 0 640 640" width="640" height="640"><defs><path d="M250.82 308.86L314.71 308.86L314.71 378.63L250.82 378.63L250.82 308.86Z" id="d513GZVtZx"/><path d="M477.47 535.67L19.78 360.25L163 302.91L622.56 477.79L477.47 535.67Z" id="bf9qLHGBN"/><path d="M72.46 327.53L111.7 352.28L67.21 370.53L72.46 327.53Z" id="e16cb9wcv3"/><path d="M139.63 354.47L178.87 379.22L134.39 397.47L139.63 354.47Z" id="g1NG5NIz83"/><path d="M388.16 450.86L427.4 475.61L382.91 493.86L388.16 450.86Z" id="jShdHDfmK"/><path d="M0 143.72L0 309.04L483.66 497.3L483.66 447.13L457.7 319.13L0 143.72Z" id="ctmLgr7hD"/><path d="" id="ajjFVZkmP"/><path d="M457.7 320.59L0 145.17L143.23 87.83L602.79 262.71L457.7 320.59Z" id="b2nrb0Sbc"/><path d="M483.66 447.13L630.61 390.27L630.61 438.05L483.66 497.3L483.66 447.13Z" id="j13mfMtOql"/><path d="M486.14 448.58L633.09 391.72L605.27 261.75L457.92 320.59L486.14 448.58Z" id="a35HOx0VWB"/><path d="M0 145.17L40.47 161.41L104.07 349.03L62.85 335.34L0 178.61L0 145.17Z" id="g3CKW4TY3"/><path d="M92.15 325.25C92.15 350.87 77.39 371.66 59.22 371.66C41.04 371.66 26.28 350.87 26.28 325.25C26.28 299.63 41.04 278.84 59.22 278.84C77.39 278.84 92.15 299.63 92.15 325.25Z" id="b2TjlRqevb"/><path d="M640 355.46C640 376.82 636.08 394.16 631.24 394.16C626.41 394.16 622.48 376.82 622.48 355.46C622.48 334.1 626.41 316.76 631.24 316.76C636.08 316.76 640 334.1 640 355.46Z" id="bimsrQbJK"/><path d="M133.74 365.83L73.16 174.79L129.23 193.99L194.47 384.08L133.74 365.83Z" id="brfcjQwBC"/><path d="M70.89 325.25C70.89 338.79 64.07 349.79 55.68 349.79C47.28 349.79 40.47 338.79 40.47 325.25C40.47 311.7 47.28 300.71 55.68 300.71C64.07 300.71 70.89 311.7 70.89 325.25Z" id="d6jaAaoTZ"/><path d="M159.33 352.19C159.33 377.81 144.57 398.6 126.39 398.6C108.21 398.6 93.46 377.81 93.46 352.19C93.46 326.58 108.21 305.78 126.39 305.78C144.57 305.78 159.33 326.58 159.33 352.19Z" id="f15wg56Tpa"/><path d="M283.36 254.43L374.92 456.7L330.76 439.28L217.42 229.26L283.36 254.43Z" id="a6fVtWBvt"/><path d="M138.06 352.19C138.06 365.74 131.25 376.73 122.85 376.73C114.46 376.73 107.64 365.74 107.64 352.19C107.64 338.65 114.46 327.65 122.85 327.65C131.25 327.65 138.06 338.65 138.06 352.19Z" id="e5i4kmbM0N"/><path d="M407.85 448.58C407.85 474.2 393.1 494.99 374.92 494.99C356.74 494.99 341.98 474.2 341.98 448.58C341.98 422.96 356.74 402.17 374.92 402.17C393.1 402.17 407.85 422.96 407.85 448.58Z" id="c2I1viTrTB"/><path d="M386.59 448.58C386.59 462.12 379.78 473.12 371.38 473.12C362.98 473.12 356.17 462.12 356.17 448.58C356.17 435.04 362.98 424.04 371.38 424.04C379.78 424.04 386.59 435.04 386.59 448.58Z" id="a8reWsAdLa"/><path d="M169.16 169.87L169.16 131.4L98.97 105.35L98.97 143.91L169.16 169.87Z" id="a4gDsFEfdk"/><path d="" id="a1wNvP4qeZ"/><path d="M169.16 130.53L219.98 111.14L151.06 85.08L98.97 105.35L169.16 130.53Z" id="b1ExpZhYRd"/><path d="M218.87 152.02L218.87 111.07L168.05 131.28L168.05 170.63L218.87 152.02Z" id="bhHusS8Z6"/><path d="M396.43 249.37L396.43 210.91L326.24 184.85L326.24 223.42L396.43 249.37Z" id="aPQ5MSlk"/><path d="" id="bNiDQX8lB"/><path d="M396.43 210.03L447.25 190.64L378.33 164.58L326.24 184.85L396.43 210.03Z" id="a1Bkp6KNbw"/><path d="M446.14 231.52L446.14 190.57L395.32 210.79L395.32 250.13L446.14 231.52Z" id="c33gQs0YeE"/><path d="M418.34 327.53L418.34 397.47L456.47 412.74L438.95 335.34L418.34 327.53Z" id="b3rLikh5Rm"/><path d="M305.69 282.84L305.69 328.54L380.22 358.33L380.22 312.46L305.69 282.84Z" id="b1HPDNrVSb"/><path d="" id="c1lsUCHXuY"/><path d="M127.7 211.94L127.7 278.84L93.46 265.46L93.46 199.52L127.7 211.94Z" id="g13DOBu6ue"/><path d="M514.24 466.46C514.24 476.33 509.17 484.35 502.92 484.35C496.67 484.35 491.6 476.33 491.6 466.46C491.6 456.59 496.67 448.58 502.92 448.58C509.17 448.58 514.24 456.59 514.24 466.46Z" id="a3qxT8RWX"/><path d="M625.42 422.16C625.42 432.03 620.35 440.04 614.1 440.04C607.86 440.04 602.79 432.03 602.79 422.16C602.79 412.29 607.86 404.27 614.1 404.27C620.35 404.27 625.42 412.29 625.42 422.16Z" id="aUJMT67Mf"/><path d="M488 414.56C488 435.92 484.07 453.27 479.24 453.27C474.4 453.27 470.48 435.92 470.48 414.56C470.48 393.2 474.4 375.86 479.24 375.86C484.07 375.86 488 393.2 488 414.56Z" id="b71GVfS8Jt"/></defs><g><g><g><use xlink:href="#d513GZVtZx" opacity="1" fill="#ace000" fill-opacity="1"/></g><g><g><use xlink:href="#bf9qLHGBN" opacity="1" fill="#717171" fill-opacity="1"/></g><g><use xlink:href="#e16cb9wcv3" opacity="1" fill="#4e4e4e" fill-opacity="1"/></g><g><use xlink:href="#g1NG5NIz83" opacity="1" fill="#4e4e4e" fill-opacity="1"/></g><g><use xlink:href="#jShdHDfmK" opacity="1" fill="#4e4e4e" fill-opacity="1"/></g><g><use xlink:href="#ctmLgr7hD" opacity="1" fill="#dddddd" fill-opacity="1"/></g><g><g><use xlink:href="#ajjFVZkmP" opacity="1" fill-opacity="0" stroke="#000000" stroke-width="1" stroke-opacity="1"/></g></g><g><use xlink:href="#b2nrb0Sbc" opacity="1" fill="#ffffff" fill-opacity="1"/></g><g><use xlink:href="#j13mfMtOql" opacity="1" fill="#909090" fill-opacity="1"/></g><g><use xlink:href="#a35HOx0VWB" opacity="1" fill="#6fd8ff" fill-opacity="1"/></g><g><use xlink:href="#g3CKW4TY3" opacity="1" fill="#45beab" fill-opacity="1"/></g><g><use xlink:href="#b2TjlRqevb" opacity="1" fill="#4e4e4e" fill-opacity="1"/></g><g><use xlink:href="#bimsrQbJK" opacity="1" fill="#898989" fill-opacity="1"/></g><g><use xlink:href="#brfcjQwBC" opacity="1" fill="#c74d4d" fill-opacity="1"/></g><g><use xlink:href="#d6jaAaoTZ" opacity="1" fill="#dddddd" fill-opacity="1"/></g><g><use xlink:href="#f15wg56Tpa" opacity="1" fill="#4e4e4e" fill-opacity="1"/></g><g><use xlink:href="#a6fVtWBvt" opacity="1" fill="#7da732" fill-opacity="1"/></g><g><use xlink:href="#e5i4kmbM0N" opacity="1" fill="#dddddd" fill-opacity="1"/></g><g><use xlink:href="#c2I1viTrTB" opacity="1" fill="#4e4e4e" fill-opacity="1"/></g><g><use xlink:href="#a8reWsAdLa" opacity="1" fill="#dddddd" fill-opacity="1"/></g><g><g><use xlink:href="#a4gDsFEfdk" opacity="1" fill="#dddddd" fill-opacity="1"/></g><g><g><use xlink:href="#a1wNvP4qeZ" opacity="1" fill-opacity="0" stroke="#4e0f0f" stroke-width="1" stroke-opacity="1"/></g></g><g><use xlink:href="#b1ExpZhYRd" opacity="1" fill="#ffffff" fill-opacity="1"/></g><g><use xlink:href="#bhHusS8Z6" opacity="1" fill="#909090" fill-opacity="1"/></g></g><g><g><use xlink:href="#aPQ5MSlk" opacity="1" fill="#dddddd" fill-opacity="1"/></g><g><g><use xlink:href="#bNiDQX8lB" opacity="1" fill-opacity="0" stroke="#4e0f0f" stroke-width="1" stroke-opacity="1"/></g></g><g><use xlink:href="#a1Bkp6KNbw" opacity="1" fill="#ffffff" fill-opacity="1"/></g><g><use xlink:href="#c33gQs0YeE" opacity="1" fill="#909090" fill-opacity="1"/></g></g><g><use xlink:href="#b3rLikh5Rm" opacity="1" fill="#6fd8ff" fill-opacity="1"/></g><g><use xlink:href="#b1HPDNrVSb" opacity="1" fill="#6fd8ff" fill-opacity="1"/></g><g><g><use xlink:href="#c1lsUCHXuY" opacity="1" fill-opacity="0" stroke="#000000" stroke-width="1" stroke-opacity="1"/></g></g><g><use xlink:href="#g13DOBu6ue" opacity="1" fill="#6fd8ff" fill-opacity="1"/></g><g><use xlink:href="#a3qxT8RWX" opacity="1" fill="#ffffff" fill-opacity="1"/></g><g><use xlink:href="#aUJMT67Mf" opacity="1" fill="#ffffff" fill-opacity="1"/></g><g><use xlink:href="#b71GVfS8Jt" opacity="1" fill="#898989" fill-opacity="1"/></g></g></g></g></svg>