<svg xmlns="http://www.w3.org/2000/svg" xmlns:xlink="http://www.w3.org/1999/xlink" version="1.1" preserveAspectRatio="xMidYMid meet" viewBox="0 0 1000 400" height="100%"><defs><path d="M1.08 0.46L1455.6 0.46L1455.6 471.73L1.08 471.73L1.08 0.46Z" id="d1AFnzid0m"></path><path d="M748.63 -3.82L-2.37 298.35L-11.14 220.59L574.56 -2.64L748.63 -3.82Z" id="afIaJVBeI"></path><path d="M-141.06 26.78L-105.06 26.78L-105.06 66.78L-141.06 66.78L-141.06 26.78Z" id="eL0mp9caC"></path><path d="M-116.83 139.49L-144.44 153.55L-123.12 165.09L-168.49 170.86L-162.28 187.44L-221.33 191.41L-218.36 209.08L-287.6 219.17L-279.96 189.61L-262.12 187.44L-247.25 159.68L-228.98 165.09L-212.96 142.73L-189.05 140.93L-159.31 147.06L-132.54 136.6L-116.83 139.49Z" id="b27mPRUZOH"></path><path d="M-122.13 103.12L-122.13 140.99L-133.18 140.99L-131.91 103.12L-122.13 103.12Z" id="a4YxXChe9"></path><path d="M-122.56 140.99L-112.36 138.47L-112.36 103.12L-124.32 103.12L-122.56 140.99Z" id="cSDwMJFpk"></path><path d="M-124.67 2.8L-157.92 116.89L-213.61 87.5L-124.67 2.8Z" id="a1EH9h8NLp"></path><path d="M-70.39 115.87L-158.81 116.86L-124.67 2.8L-70.39 115.87Z" id="a3smR5l00g"></path><path d="M-125.65 3.59L-39.28 81.14L-71.32 115.69L-125.65 3.59Z" id="d2DIQZ9bui"></path><path d="M-119.69 -38.04L-146.7 76.06L-191.93 46.67L-119.69 -38.04Z" id="c6hFH9nQH"></path><path d="M-75.6 75.04L-147.42 76.03L-119.69 -38.04L-75.6 75.04Z" id="a78EjINXw"></path><path d="M-120.48 -37.24L-50.33 40.31L-76.36 74.86L-120.48 -37.24Z" id="bDgSGr4S5"></path><path d="M-122.59 -48.21L-144.57 30.54L-181.39 10.25L-122.59 -48.21Z" id="b2ijnQboe3"></path><path d="M-86.71 29.83L-145.16 30.52L-122.59 -48.21L-86.71 29.83Z" id="a5zwtPiq0w"></path><path d="M-123.24 -47.66L-66.14 5.87L-87.32 29.71L-123.24 -47.66Z" id="aycuMVbr4"></path><path d="M-89.41 40.71L-64.76 25.2L-74.11 14.74L-89.41 29.17L-145.08 30.54L-89.41 40.71Z" id="aokpH5aGt"></path><path d="M-64.76 59.84L-77.12 74.63L-147.64 76.06L-86.46 85.09L-58.43 63.82L-64.76 59.84Z" id="e7InYoAGgP"></path><path d="M-147.42 109.82L-111.42 109.82L-111.42 149.82L-147.42 149.82L-147.42 109.82Z" id="fBYj44pNa"></path><path d="M-123.19 222.52L-150.8 236.58L-129.48 248.12L-174.86 253.89L-168.65 270.47L-227.7 274.44L-224.72 292.11L-293.97 302.2L-286.32 272.64L-268.48 270.47L-253.61 242.71L-235.34 248.12L-219.33 225.76L-195.41 223.96L-165.67 230.09L-138.9 219.64L-123.19 222.52Z" id="aUOlAM5Eu"></path><path d="M-128.5 186.15L-128.5 224.02L-139.55 224.02L-138.27 186.15L-128.5 186.15Z" id="a32aqRLJD"></path><path d="M-128.92 224.02L-118.72 221.5L-118.72 186.15L-130.69 186.15L-128.92 224.02Z" id="e89ABkOmv"></path><path d="M-131.03 85.83L-164.28 199.92L-219.97 170.53L-131.03 85.83Z" id="an1y3O4nW"></path><path d="M-76.76 198.9L-165.17 199.89L-131.03 85.83L-76.76 198.9Z" id="d4vbgeio4"></path><path d="M-132.01 86.62L-45.65 164.17L-77.69 198.72L-132.01 86.62Z" id="a1dFLdrODO"></path><path d="M-126.05 45L-153.06 159.09L-198.3 129.7L-126.05 45Z" id="c3r4NArIOj"></path><path d="M-81.97 158.07L-153.79 159.06L-126.05 45L-81.97 158.07Z" id="c3XE3nm1P5"></path><path d="M-126.85 45.79L-56.7 123.34L-82.72 157.89L-126.85 45.79Z" id="b2ss2xJuEa"></path><path d="M-128.95 34.83L-150.94 113.57L-187.75 93.28L-128.95 34.83Z" id="f1kKfqwq6E"></path><path d="M-93.07 112.86L-151.53 113.55L-128.95 34.83L-93.07 112.86Z" id="c3b6ptdiCr"></path><path d="M-129.6 35.37L-72.5 88.9L-93.69 112.74L-129.6 35.37Z" id="bK4rIqUVs"></path><path d="M-95.77 123.74L-71.12 108.23L-80.47 97.77L-95.77 112.2L-151.45 113.57L-95.77 123.74Z" id="c1nuIiQocF"></path><path d="M-71.12 142.87L-83.48 157.66L-154 159.09L-92.83 168.12L-64.79 146.85L-71.12 142.87Z" id="brePHHtS1"></path><path d="M137.8 220.07L309.89 151.77L256.04 129.45L83.25 197.53L137.8 220.07Z" id="g2mm6SQGM3"></path><path d="M290.08 139.04L275.33 148.67L292.05 155.78L290.08 139.04Z" id="c1s2vv7okW"></path><path d="M264.83 149.52L250.07 159.16L266.8 166.26L264.83 149.52Z" id="a4hK9nYudq"></path><path d="M171.38 187.05L156.63 196.69L173.35 203.79L171.38 187.05Z" id="k22XSqYdX"></path><path d="M317.33 67.48L317.33 131.84L135.48 205.13L135.48 185.6L145.24 135.77L317.33 67.48Z" id="a1lHIjJZ05"></path><path d="M76.69 153.3C76.69 161.62 78.17 168.37 79.98 168.37C81.8 168.37 83.28 161.62 83.28 153.3C83.28 144.99 81.8 138.24 79.98 138.24C78.17 138.24 76.69 144.99 76.69 153.3Z" id="jgQ1QtOWF"></path><path d="" id="h9aetfoXV"></path><path d="M145.24 136.33L317.33 68.04L263.47 45.72L90.68 113.8L145.24 136.33Z" id="cc9TexdIj"></path><path d="M135.48 185.6L80.22 163.46L80.22 182.06L135.48 205.13L135.48 185.6Z" id="ioC8BgMjX"></path><path d="M135.48 186.16L80.22 164.03L90.68 113.43L146.09 136.33L135.48 186.16Z" id="bmREAliot"></path><path d="M317.33 68.04L302.11 74.37L278.2 147.41L293.69 142.08L317.33 81.06L317.33 68.04Z" id="bGRr6UScl"></path><path d="M282.68 138.15C282.68 148.12 288.23 156.22 295.06 156.22C301.9 156.22 307.44 148.12 307.44 138.15C307.44 128.18 301.9 120.08 295.06 120.08C288.23 120.08 282.68 128.18 282.68 138.15Z" id="d8y2OrTcC"></path><path d="M267.04 153.95L289.82 79.58L268.74 87.05L244.21 161.05L267.04 153.95Z" id="a1kvzeZOKp"></path><path d="M290.67 138.15C290.67 143.42 293.23 147.7 296.39 147.7C299.55 147.7 302.11 143.42 302.11 138.15C302.11 132.88 299.55 128.6 296.39 128.6C293.23 128.6 290.67 132.88 290.67 138.15Z" id="brYb9dvvJ"></path><path d="M257.42 148.64C257.42 158.61 262.97 166.71 269.8 166.71C276.64 166.71 282.19 158.61 282.19 148.64C282.19 138.67 276.64 130.57 269.8 130.57C262.97 130.57 257.42 138.67 257.42 148.64Z" id="a7L6yNjUk"></path><path d="M210.78 110.58L176.36 189.32L192.96 182.54L235.58 100.78L210.78 110.58Z" id="a3no5ot58u"></path><path d="M265.41 148.64C265.41 153.91 267.98 158.19 271.13 158.19C274.29 158.19 276.85 153.91 276.85 148.64C276.85 143.36 274.29 139.08 271.13 139.08C267.98 139.08 265.41 143.36 265.41 148.64Z" id="bPJ4S3P3W"></path><path d="M163.98 186.16C163.98 196.13 169.53 204.23 176.36 204.23C183.19 204.23 188.74 196.13 188.74 186.16C188.74 176.19 183.19 168.09 176.36 168.09C169.53 168.09 163.98 176.19 163.98 186.16Z" id="a1g1pB2LCe"></path><path d="M171.97 186.16C171.97 191.44 174.53 195.72 177.69 195.72C180.85 195.72 183.41 191.44 183.41 186.16C183.41 180.89 180.85 176.61 177.69 176.61C174.53 176.61 171.97 180.89 171.97 186.16Z" id="c6BJVClwF7"></path><path d="M253.72 77.66L253.72 62.68L280.11 52.54L280.11 67.55L253.72 77.66Z" id="b2j6s4ZfOm"></path><path d="" id="i6gzYAsd9"></path><path d="M253.72 62.34L234.61 54.79L260.53 44.65L280.11 52.54L253.72 62.34Z" id="b3s1J5ByOh"></path><path d="M235.03 70.71L235.03 54.77L254.14 62.64L254.14 77.95L235.03 70.71Z" id="bLhGDGQLC"></path><path d="M168.27 108.61L168.27 93.64L194.66 83.49L194.66 98.51L168.27 108.61Z" id="cfZkOEvoU"></path><path d="" id="az457gF7W"></path><path d="M168.27 93.29L149.16 85.74L175.08 75.6L194.66 83.49L168.27 93.29Z" id="c4dNzJOfY1"></path><path d="M149.58 101.66L149.58 85.72L168.69 93.59L168.69 108.91L149.58 101.66Z" id="b5JHVdSZ3x"></path><path d="M160.03 139.04L160.03 166.26L145.7 172.21L152.28 142.08L160.03 139.04Z" id="e5GMxfqYC"></path><path d="M202.39 121.64L202.39 139.43L174.37 151.03L174.37 133.17L202.39 121.64Z" id="a3QaY30S5m"></path><path d="" id="a4vBeaTOb"></path><path d="M269.31 94.04L269.31 120.08L282.19 114.87L282.19 89.2L269.31 94.04Z" id="aE1eAA1qk"></path><path d="M123.98 193.12C123.98 196.97 125.88 200.09 128.23 200.09C130.58 200.09 132.49 196.97 132.49 193.12C132.49 189.28 130.58 186.16 128.23 186.16C125.88 186.16 123.98 189.28 123.98 193.12Z" id="a13kBFCTX"></path><path d="M82.17 175.88C82.17 179.72 84.08 182.84 86.43 182.84C88.78 182.84 90.68 179.72 90.68 175.88C90.68 172.03 88.78 168.91 86.43 168.91C84.08 168.91 82.17 172.03 82.17 175.88Z" id="b1d9Eyi2VT"></path><path d="" id="a4onlXAnCt"></path><path d="M136.79 175.75C136.79 184.06 138.26 190.81 140.08 190.81C141.9 190.81 143.37 184.06 143.37 175.75C143.37 167.43 141.9 160.68 140.08 160.68C138.26 160.68 136.79 167.43 136.79 175.75Z" id="c2Hc8cMgrG"></path><path d="M-136.21 287.69L-100.21 287.69L-100.21 327.69L-136.21 327.69L-136.21 287.69Z" id="a2p7UrKSja"></path><path d="M-111.98 400.4L-139.59 414.46L-118.27 426L-163.65 431.77L-157.44 448.35L-216.49 452.32L-213.51 469.99L-282.76 480.08L-275.11 450.52L-257.27 448.35L-242.4 420.59L-224.13 426L-208.12 403.64L-184.2 401.84L-154.46 407.97L-127.69 397.51L-111.98 400.4Z" id="aCAdPWwUX"></path><path d="M-117.28 364.02L-117.28 401.9L-128.33 401.9L-127.06 364.02L-117.28 364.02Z" id="a7yeefgz"></path><path d="M-117.71 401.9L-107.51 399.38L-107.51 364.02L-119.47 364.02L-117.71 401.9Z" id="a1v6hPtOFP"></path><path d="M-119.82 263.71L-153.07 377.8L-208.76 348.41L-119.82 263.71Z" id="a15lQzj8Ed"></path><path d="M-65.54 376.78L-153.96 377.77L-119.82 263.71L-65.54 376.78Z" id="b1wE81nhq"></path><path d="M-120.8 264.5L-34.44 342.05L-66.47 376.6L-120.8 264.5Z" id="fFnTMv10T"></path><path d="M-114.84 222.87L-141.85 336.97L-187.09 307.58L-114.84 222.87Z" id="aIu2cF3ya"></path><path d="M-70.75 335.95L-142.57 336.94L-114.84 222.87L-70.75 335.95Z" id="a4KwMv9AZ"></path><path d="M-115.64 223.67L-45.49 301.22L-71.51 335.77L-115.64 223.67Z" id="l5i3N6006s"></path><path d="M-117.74 212.7L-139.72 291.45L-176.54 271.16L-117.74 212.7Z" id="a41TN7JnyH"></path><path d="M-81.86 290.74L-140.31 291.43L-117.74 212.7L-81.86 290.74Z" id="b2tuOulwc"></path><path d="M-118.39 213.25L-61.29 266.77L-82.47 290.62L-118.39 213.25Z" id="edxRUku5"></path><path d="M-84.56 301.62L-59.91 286.11L-69.26 275.65L-84.56 290.08L-140.23 291.45L-84.56 301.62Z" id="bqjox5iQ5"></path><path d="M-59.91 320.75L-72.27 335.54L-142.79 336.97L-81.62 346L-53.58 324.72L-59.91 320.75Z" id="c9Pecb7KB"></path></defs><g><g><use xlink:href="#d1AFnzid0m" opacity="1" fill="#bdcd87" fill-opacity="1"></use></g><g><use xlink:href="#afIaJVBeI" opacity="1" fill="#9e9e9e" fill-opacity="1"></use></g><g class="tree sd-0"><g><use xlink:href="#eL0mp9caC" opacity="1" fill="#ace500" fill-opacity="1" class="tag"></use></g><g><g><use xlink:href="#b27mPRUZOH" opacity="0.66" fill="#898989" fill-opacity="1"></use></g><g><g><use xlink:href="#a4YxXChe9" opacity="1" fill="#6d613a" fill-opacity="1"></use></g><g><use xlink:href="#cSDwMJFpk" opacity="1" fill="#bb9861" fill-opacity="1"></use></g></g><g><use xlink:href="#a1EH9h8NLp" opacity="1" fill="#85a061" fill-opacity="1"></use></g><g><use xlink:href="#a3smR5l00g" opacity="1" fill="#98bb4c" fill-opacity="1"></use></g><g><use xlink:href="#d2DIQZ9bui" opacity="1" fill="#a3ce75" fill-opacity="1"></use></g><g><g><use xlink:href="#c6hFH9nQH" opacity="1" fill="#85a061" fill-opacity="1"></use></g><g><use xlink:href="#a78EjINXw" opacity="1" fill="#98bb4c" fill-opacity="1"></use></g><g><use xlink:href="#bDgSGr4S5" opacity="1" fill="#a3ce75" fill-opacity="1"></use></g></g><g><g><use xlink:href="#b2ijnQboe3" opacity="1" fill="#85a061" fill-opacity="1"></use></g><g><use xlink:href="#a5zwtPiq0w" opacity="1" fill="#98bb4c" fill-opacity="1"></use></g><g><use xlink:href="#aycuMVbr4" opacity="1" fill="#a3ce75" fill-opacity="1"></use></g></g><g><use xlink:href="#aokpH5aGt" opacity="0.4" fill="#7c7c7c" fill-opacity="1"></use></g><g><use xlink:href="#e7InYoAGgP" opacity="0.43" fill="#898989" fill-opacity="1"></use></g></g></g><g class="tree sd-2"><g><use xlink:href="#fBYj44pNa" opacity="1" fill="#ace500" fill-opacity="1" class="tag"></use></g><g><g><use xlink:href="#aUOlAM5Eu" opacity="0.66" fill="#898989" fill-opacity="1"></use></g><g><g><use xlink:href="#a32aqRLJD" opacity="1" fill="#6d613a" fill-opacity="1"></use></g><g><use xlink:href="#e89ABkOmv" opacity="1" fill="#bb9861" fill-opacity="1"></use></g></g><g><use xlink:href="#an1y3O4nW" opacity="1" fill="#85a061" fill-opacity="1"></use></g><g><use xlink:href="#d4vbgeio4" opacity="1" fill="#98bb4c" fill-opacity="1"></use></g><g><use xlink:href="#a1dFLdrODO" opacity="1" fill="#a3ce75" fill-opacity="1"></use></g><g><g><use xlink:href="#c3r4NArIOj" opacity="1" fill="#85a061" fill-opacity="1"></use></g><g><use xlink:href="#c3XE3nm1P5" opacity="1" fill="#98bb4c" fill-opacity="1"></use></g><g><use xlink:href="#b2ss2xJuEa" opacity="1" fill="#a3ce75" fill-opacity="1"></use></g></g><g><g><use xlink:href="#f1kKfqwq6E" opacity="1" fill="#85a061" fill-opacity="1"></use></g><g><use xlink:href="#c3b6ptdiCr" opacity="1" fill="#98bb4c" fill-opacity="1"></use></g><g><use xlink:href="#bK4rIqUVs" opacity="1" fill="#a3ce75" fill-opacity="1"></use></g></g><g><use xlink:href="#c1nuIiQocF" opacity="0.4" fill="#7c7c7c" fill-opacity="1"></use></g><g><use xlink:href="#brePHHtS1" opacity="0.43" fill="#898989" fill-opacity="1"></use></g></g></g><g><g><use xlink:href="#g2mm6SQGM3" opacity="1" fill="#717171" fill-opacity="1"></use></g><g><use xlink:href="#c1s2vv7okW" opacity="1" fill="#4e4e4e" fill-opacity="1"></use></g><g><use xlink:href="#a4hK9nYudq" opacity="1" fill="#4e4e4e" fill-opacity="1"></use></g><g><use xlink:href="#k22XSqYdX" opacity="1" fill="#4e4e4e" fill-opacity="1"></use></g><g><use xlink:href="#a1lHIjJZ05" opacity="1" fill="#dddddd" fill-opacity="1"></use></g><g><use xlink:href="#jgQ1QtOWF" opacity="1" fill="#898989" fill-opacity="1"></use></g><g><g><use xlink:href="#h9aetfoXV" opacity="1" fill-opacity="0" stroke="#000000" stroke-width="1" stroke-opacity="1"></use></g></g><g><use xlink:href="#cc9TexdIj" opacity="1" fill="#ffffff" fill-opacity="1"></use></g><g><use xlink:href="#ioC8BgMjX" opacity="1" fill="#909090" fill-opacity="1"></use></g><g><use xlink:href="#bmREAliot" opacity="1" fill="#6fd8ff" fill-opacity="1"></use></g><g><use xlink:href="#bGRr6UScl" opacity="1" fill="#45beab" fill-opacity="1"></use></g><g><use xlink:href="#d8y2OrTcC" opacity="1" fill="#4e4e4e" fill-opacity="1"></use></g><g><use xlink:href="#a1kvzeZOKp" opacity="1" fill="#c74d4d" fill-opacity="1"></use></g><g><use xlink:href="#brYb9dvvJ" opacity="1" fill="#dddddd" fill-opacity="1"></use></g><g><use xlink:href="#a7L6yNjUk" opacity="1" fill="#4e4e4e" fill-opacity="1"></use></g><g><use xlink:href="#a3no5ot58u" opacity="1" fill="#7da732" fill-opacity="1"></use></g><g><use xlink:href="#bPJ4S3P3W" opacity="1" fill="#dddddd" fill-opacity="1"></use></g><g><use xlink:href="#a1g1pB2LCe" opacity="1" fill="#4e4e4e" fill-opacity="1"></use></g><g><use xlink:href="#c6BJVClwF7" opacity="1" fill="#dddddd" fill-opacity="1"></use></g><g><g><use xlink:href="#b2j6s4ZfOm" opacity="1" fill="#dddddd" fill-opacity="1"></use></g><g><g><use xlink:href="#i6gzYAsd9" opacity="1" fill-opacity="0" stroke="#4e0f0f" stroke-width="1" stroke-opacity="1"></use></g></g><g><use xlink:href="#b3s1J5ByOh" opacity="1" fill="#ffffff" fill-opacity="1"></use></g><g><use xlink:href="#bLhGDGQLC" opacity="1" fill="#909090" fill-opacity="1"></use></g></g><g><g><use xlink:href="#cfZkOEvoU" opacity="1" fill="#dddddd" fill-opacity="1"></use></g><g><g><use xlink:href="#az457gF7W" opacity="1" fill-opacity="0" stroke="#4e0f0f" stroke-width="1" stroke-opacity="1"></use></g></g><g><use xlink:href="#c4dNzJOfY1" opacity="1" fill="#ffffff" fill-opacity="1"></use></g><g><use xlink:href="#b5JHVdSZ3x" opacity="1" fill="#909090" fill-opacity="1"></use></g></g><g><use xlink:href="#e5GMxfqYC" opacity="1" fill="#6fd8ff" fill-opacity="1"></use></g><g><use xlink:href="#a3QaY30S5m" opacity="1" fill="#6fd8ff" fill-opacity="1"></use></g><g><g><use xlink:href="#a4vBeaTOb" opacity="1" fill-opacity="0" stroke="#000000" stroke-width="1" stroke-opacity="1"></use></g></g><g><use xlink:href="#aE1eAA1qk" opacity="1" fill="#6fd8ff" fill-opacity="1"></use></g><g><use xlink:href="#a13kBFCTX" opacity="1" fill="#ffffff" fill-opacity="1"></use></g><g><use xlink:href="#b1d9Eyi2VT" opacity="1" fill="#ffffff" fill-opacity="1"></use></g><g><g><use xlink:href="#a4onlXAnCt" opacity="1" fill-opacity="0" stroke="#8c8c8c" stroke-width="1" stroke-opacity="1"></use></g></g><g><use xlink:href="#c2Hc8cMgrG" opacity="1" fill="#898989" fill-opacity="1"></use></g></g><g class="tree sd-4"><g><use xlink:href="#a2p7UrKSja" opacity="1" fill="#ace500" fill-opacity="1" class="tag"></use></g><g><g><use xlink:href="#aCAdPWwUX" opacity="0.66" fill="#898989" fill-opacity="1"></use></g><g><g><use xlink:href="#a7yeefgz" opacity="1" fill="#6d613a" fill-opacity="1"></use></g><g><use xlink:href="#a1v6hPtOFP" opacity="1" fill="#bb9861" fill-opacity="1"></use></g></g><g><use xlink:href="#a15lQzj8Ed" opacity="1" fill="#85a061" fill-opacity="1"></use></g><g><use xlink:href="#b1wE81nhq" opacity="1" fill="#98bb4c" fill-opacity="1"></use></g><g><use xlink:href="#fFnTMv10T" opacity="1" fill="#a3ce75" fill-opacity="1"></use></g><g><g><use xlink:href="#aIu2cF3ya" opacity="1" fill="#85a061" fill-opacity="1"></use></g><g><use xlink:href="#a4KwMv9AZ" opacity="1" fill="#98bb4c" fill-opacity="1"></use></g><g><use xlink:href="#l5i3N6006s" opacity="1" fill="#a3ce75" fill-opacity="1"></use></g></g><g><g><use xlink:href="#a41TN7JnyH" opacity="1" fill="#85a061" fill-opacity="1"></use></g><g><use xlink:href="#b2tuOulwc" opacity="1" fill="#98bb4c" fill-opacity="1"></use></g><g><use xlink:href="#edxRUku5" opacity="1" fill="#a3ce75" fill-opacity="1"></use></g></g><g><use xlink:href="#bqjox5iQ5" opacity="0.4" fill="#7c7c7c" fill-opacity="1"></use></g><g><use xlink:href="#c9Pecb7KB" opacity="0.43" fill="#898989" fill-opacity="1"></use></g></g></g></g></svg>